<svg width="280" height="78" viewBox="0 0 280 78" fill="none" xmlns="http://www.w3.org/2000/svg">
<path d="M10.2513 1.42C11.5946 1.42 12.6346 1.79267 13.3713 2.538C14.1079 3.27467 14.4763 4.332 14.4763 5.71C14.4763 7.07933 14.1079 8.13667 13.3713 8.882C12.6346 9.62733 11.5946 10 10.2513 10H6.93628V1.42H10.2513ZM10.1603 8.57C10.975 8.57 11.586 8.32733 11.9933 7.842C12.4093 7.348 12.6173 6.63733 12.6173 5.71C12.6173 4.78267 12.4093 4.07633 11.9933 3.591C11.586 3.097 10.975 2.85 10.1603 2.85H8.73028V8.57H10.1603ZM16.1769 2.564C15.8043 2.564 15.5269 2.486 15.3449 2.33C15.1629 2.16533 15.0719 1.927 15.0719 1.615C15.0719 1.29433 15.1629 1.056 15.3449 0.899999C15.5269 0.735333 15.8043 0.652999 16.1769 0.652999C16.5496 0.652999 16.8269 0.735333 17.0089 0.899999C17.1909 1.056 17.2819 1.29433 17.2819 1.615C17.2819 1.927 17.1909 2.16533 17.0089 2.33C16.8269 2.486 16.5496 2.564 16.1769 2.564ZM17.0609 3.5V10H15.2799V3.5H17.0609ZM18.1689 10V3.5H19.7159L19.8329 4.774C20.0062 4.32333 20.2576 3.97667 20.5869 3.734C20.9249 3.49133 21.3452 3.37 21.8479 3.37C21.9952 3.37 22.1296 3.383 22.2509 3.409C22.3722 3.435 22.4719 3.46967 22.5499 3.513L22.3419 5.008C22.2552 4.97333 22.1469 4.94733 22.0169 4.93C21.8956 4.91267 21.7352 4.904 21.5359 4.904C21.2759 4.904 21.0246 4.969 20.7819 5.099C20.5392 5.22033 20.3399 5.411 20.1839 5.671C20.0279 5.92233 19.9499 6.243 19.9499 6.633V10H18.1689ZM25.7623 10.13C25.0776 10.13 24.4796 9.99567 23.9683 9.727C23.4656 9.45833 23.0756 9.07267 22.7983 8.57C22.521 8.06733 22.3823 7.46067 22.3823 6.75C22.3823 6.03933 22.521 5.43267 22.7983 4.93C23.0756 4.42733 23.4613 4.04167 23.9553 3.773C24.458 3.50433 25.03 3.37 25.6713 3.37C26.33 3.37 26.889 3.50433 27.3483 3.773C27.8076 4.033 28.1586 4.39267 28.4013 4.852C28.644 5.30267 28.7653 5.81833 28.7653 6.399C28.7653 6.57233 28.761 6.737 28.7523 6.893C28.7436 7.049 28.7306 7.18767 28.7133 7.309H23.5263V6.074H27.9333L27.0753 6.386C27.0753 5.84 26.9496 5.41967 26.6983 5.125C26.4556 4.83033 26.109 4.683 25.6583 4.683C25.329 4.683 25.043 4.761 24.8003 4.917C24.5663 5.073 24.3886 5.307 24.2673 5.619C24.146 5.92233 24.0853 6.308 24.0853 6.776C24.0853 7.23533 24.1503 7.61667 24.2803 7.92C24.419 8.21467 24.6096 8.43567 24.8523 8.583C25.1036 8.73033 25.4026 8.804 25.7493 8.804C26.1306 8.804 26.4383 8.73033 26.6723 8.583C26.9063 8.43567 27.0883 8.232 27.2183 7.972L28.6353 8.518C28.4966 8.856 28.2843 9.14633 27.9983 9.389C27.721 9.63167 27.3873 9.818 26.9973 9.948C26.616 10.0693 26.2043 10.13 25.7623 10.13ZM32.4456 3.37C33.0263 3.37 33.516 3.45667 33.9146 3.63C34.322 3.79467 34.647 4.02433 34.8896 4.319C35.141 4.605 35.3186 4.92567 35.4226 5.281L33.7586 5.879C33.672 5.489 33.5246 5.19433 33.3166 4.995C33.1086 4.79567 32.827 4.696 32.4716 4.696C32.1423 4.696 31.8606 4.774 31.6266 4.93C31.3926 5.07733 31.215 5.307 31.0936 5.619C30.9723 5.92233 30.9116 6.30367 30.9116 6.763C30.9116 7.22233 30.9723 7.60367 31.0936 7.907C31.2236 8.21033 31.4056 8.43567 31.6396 8.583C31.8823 8.73033 32.164 8.804 32.4846 8.804C32.7446 8.804 32.9656 8.76067 33.1476 8.674C33.3296 8.57867 33.477 8.44433 33.5896 8.271C33.711 8.09767 33.7933 7.88967 33.8366 7.647L35.4486 8.167C35.3533 8.557 35.1756 8.89933 34.9156 9.194C34.6556 9.48867 34.322 9.71833 33.9146 9.883C33.5073 10.0477 33.035 10.13 32.4976 10.13C31.8303 10.13 31.241 9.99567 30.7296 9.727C30.2183 9.45833 29.824 9.07267 29.5466 8.57C29.2693 8.06733 29.1306 7.46067 29.1306 6.75C29.1306 6.03933 29.2693 5.43267 29.5466 4.93C29.824 4.42733 30.214 4.04167 30.7166 3.773C31.2193 3.50433 31.7956 3.37 32.4456 3.37ZM39.0035 3.37C39.5842 3.37 40.0739 3.45667 40.4725 3.63C40.8799 3.79467 41.2049 4.02433 41.4475 4.319C41.6989 4.605 41.8765 4.92567 41.9805 5.281L40.3165 5.879C40.2299 5.489 40.0825 5.19433 39.8745 4.995C39.6665 4.79567 39.3849 4.696 39.0295 4.696C38.7002 4.696 38.4185 4.774 38.1845 4.93C37.9505 5.07733 37.7729 5.307 37.6515 5.619C37.5302 5.92233 37.4695 6.30367 37.4695 6.763C37.4695 7.22233 37.5302 7.60367 37.6515 7.907C37.7815 8.21033 37.9635 8.43567 38.1975 8.583C38.4402 8.73033 38.7219 8.804 39.0425 8.804C39.3025 8.804 39.5235 8.76067 39.7055 8.674C39.8875 8.57867 40.0349 8.44433 40.1475 8.271C40.2689 8.09767 40.3512 7.88967 40.3945 7.647L42.0065 8.167C41.9112 8.557 41.7335 8.89933 41.4735 9.194C41.2135 9.48867 40.8799 9.71833 40.4725 9.883C40.0652 10.0477 39.5929 10.13 39.0555 10.13C38.3882 10.13 37.7989 9.99567 37.2875 9.727C36.7762 9.45833 36.3819 9.07267 36.1045 8.57C35.8272 8.06733 35.6885 7.46067 35.6885 6.75C35.6885 6.03933 35.8272 5.43267 36.1045 4.93C36.3819 4.42733 36.7719 4.04167 37.2745 3.773C37.7772 3.50433 38.3535 3.37 39.0035 3.37ZM43.5074 2.564C43.1347 2.564 42.8574 2.486 42.6754 2.33C42.4934 2.16533 42.4024 1.927 42.4024 1.615C42.4024 1.29433 42.4934 1.056 42.6754 0.899999C42.8574 0.735333 43.1347 0.652999 43.5074 0.652999C43.8801 0.652999 44.1574 0.735333 44.3394 0.899999C44.5214 1.056 44.6124 1.29433 44.6124 1.615C44.6124 1.927 44.5214 2.16533 44.3394 2.33C44.1574 2.486 43.8801 2.564 43.5074 2.564ZM44.3914 3.5V10H42.6104V3.5H44.3914ZM48.4634 3.37C49.122 3.37 49.6984 3.50433 50.1924 3.773C50.695 4.04167 51.085 4.42733 51.3624 4.93C51.6484 5.43267 51.7914 6.03933 51.7914 6.75C51.7914 7.452 51.6484 8.05867 51.3624 8.57C51.085 9.07267 50.695 9.45833 50.1924 9.727C49.6984 9.99567 49.122 10.13 48.4634 10.13C47.8134 10.13 47.237 9.99567 46.7344 9.727C46.2317 9.45833 45.8374 9.07267 45.5514 8.57C45.274 8.05867 45.1354 7.452 45.1354 6.75C45.1354 6.03933 45.274 5.43267 45.5514 4.93C45.8374 4.42733 46.2317 4.04167 46.7344 3.773C47.237 3.50433 47.8134 3.37 48.4634 3.37ZM48.4634 4.696C48.134 4.696 47.8524 4.774 47.6184 4.93C47.393 5.07733 47.2197 5.30267 47.0984 5.606C46.977 5.90933 46.9164 6.29067 46.9164 6.75C46.9164 7.20933 46.977 7.59067 47.0984 7.894C47.2197 8.19733 47.393 8.427 47.6184 8.583C47.8524 8.73033 48.134 8.804 48.4634 8.804C48.784 8.804 49.057 8.73033 49.2824 8.583C49.5164 8.427 49.694 8.19733 49.8154 7.894C49.9367 7.59067 49.9974 7.20933 49.9974 6.75C49.9974 6.29067 49.9367 5.90933 49.8154 5.606C49.694 5.30267 49.5164 5.07733 49.2824 4.93C49.057 4.774 48.784 4.696 48.4634 4.696ZM48.5024 0.353999H50.2184L48.9184 2.564H47.6054L48.5024 0.353999ZM52.5016 10V3.5H54.1006L54.2046 5.45L53.9836 5.242C54.0876 4.81733 54.2523 4.47067 54.4776 4.202C54.7029 3.92467 54.9759 3.71667 55.2966 3.578C55.6259 3.43933 55.9856 3.37 56.3756 3.37C56.8263 3.37 57.2249 3.45667 57.5716 3.63C57.9269 3.80333 58.2043 4.06767 58.4036 4.423C58.6116 4.76967 58.7156 5.20733 58.7156 5.736V10H56.9346V6.243C56.9346 5.68833 56.8263 5.307 56.6096 5.099C56.3929 4.88233 56.1113 4.774 55.7646 4.774C55.5219 4.774 55.2836 4.83467 55.0496 4.956C54.8243 5.06867 54.6379 5.255 54.4906 5.515C54.3519 5.775 54.2826 6.12167 54.2826 6.555V10H52.5016ZM66.669 10.13C65.8804 10.13 65.187 9.95667 64.589 9.61C63.9997 9.26333 63.5404 8.76067 63.211 8.102C62.8817 7.44333 62.717 6.65033 62.717 5.723C62.717 4.80433 62.8904 4.01567 63.237 3.357C63.5837 2.68967 64.0734 2.17833 64.706 1.823C65.3387 1.46767 66.0797 1.29 66.929 1.29C67.8564 1.29 68.606 1.46333 69.178 1.81C69.7501 2.148 70.2051 2.67667 70.543 3.396L68.879 4.111C68.7404 3.65167 68.502 3.31367 68.164 3.097C67.8347 2.87167 67.4274 2.759 66.942 2.759C66.4567 2.759 66.0364 2.876 65.681 3.11C65.3257 3.33533 65.0527 3.669 64.862 4.111C64.6714 4.54433 64.576 5.07733 64.576 5.71C64.576 6.36 64.667 6.91033 64.849 7.361C65.031 7.803 65.2997 8.13667 65.655 8.362C66.019 8.57867 66.4654 8.687 66.994 8.687C67.28 8.687 67.5444 8.65233 67.787 8.583C68.0384 8.51367 68.255 8.40967 68.437 8.271C68.619 8.13233 68.762 7.95467 68.866 7.738C68.97 7.52133 69.0221 7.27 69.0221 6.984V6.789H66.773V5.476H70.569V10H69.308L69.178 8.128L69.49 8.349C69.2994 8.921 68.9614 9.363 68.476 9.675C67.9994 9.97833 67.397 10.13 66.669 10.13ZM74.5946 10.13C73.9099 10.13 73.3119 9.99567 72.8006 9.727C72.2979 9.45833 71.9079 9.07267 71.6306 8.57C71.3532 8.06733 71.2146 7.46067 71.2146 6.75C71.2146 6.03933 71.3532 5.43267 71.6306 4.93C71.9079 4.42733 72.2936 4.04167 72.7876 3.773C73.2902 3.50433 73.8622 3.37 74.5036 3.37C75.1622 3.37 75.7212 3.50433 76.1806 3.773C76.6399 4.033 76.9909 4.39267 77.2336 4.852C77.4762 5.30267 77.5976 5.81833 77.5976 6.399C77.5976 6.57233 77.5932 6.737 77.5846 6.893C77.5759 7.049 77.5629 7.18767 77.5456 7.309H72.3586V6.074H76.7656L75.9076 6.386C75.9076 5.84 75.7819 5.41967 75.5306 5.125C75.2879 4.83033 74.9412 4.683 74.4906 4.683C74.1612 4.683 73.8752 4.761 73.6326 4.917C73.3986 5.073 73.2209 5.307 73.0996 5.619C72.9782 5.92233 72.9176 6.308 72.9176 6.776C72.9176 7.23533 72.9826 7.61667 73.1126 7.92C73.2512 8.21467 73.4419 8.43567 73.6846 8.583C73.9359 8.73033 74.2349 8.804 74.5816 8.804C74.9629 8.804 75.2706 8.73033 75.5046 8.583C75.7386 8.43567 75.9206 8.232 76.0506 7.972L77.4676 8.518C77.3289 8.856 77.1166 9.14633 76.8306 9.389C76.5532 9.63167 76.2196 9.818 75.8296 9.948C75.4482 10.0693 75.0366 10.13 74.5946 10.13ZM78.3269 10V3.5H79.9259L80.0299 5.45L79.8089 5.242C79.9129 4.81733 80.0776 4.47067 80.3029 4.202C80.5282 3.92467 80.8012 3.71667 81.1219 3.578C81.4512 3.43933 81.8109 3.37 82.2009 3.37C82.6516 3.37 83.0502 3.45667 83.3969 3.63C83.7522 3.80333 84.0296 4.06767 84.2289 4.423C84.4369 4.76967 84.5409 5.20733 84.5409 5.736V10H82.7599V6.243C82.7599 5.68833 82.6516 5.307 82.4349 5.099C82.2182 4.88233 81.9366 4.774 81.5899 4.774C81.3472 4.774 81.1089 4.83467 80.8749 4.956C80.6496 5.06867 80.4632 5.255 80.3159 5.515C80.1772 5.775 80.1079 6.12167 80.1079 6.555V10H78.3269ZM88.6117 10.13C87.9271 10.13 87.3291 9.99567 86.8177 9.727C86.3151 9.45833 85.9251 9.07267 85.6477 8.57C85.3704 8.06733 85.2317 7.46067 85.2317 6.75C85.2317 6.03933 85.3704 5.43267 85.6477 4.93C85.9251 4.42733 86.3107 4.04167 86.8047 3.773C87.3074 3.50433 87.8794 3.37 88.5207 3.37C89.1794 3.37 89.7384 3.50433 90.1977 3.773C90.6571 4.033 91.0081 4.39267 91.2507 4.852C91.4934 5.30267 91.6147 5.81833 91.6147 6.399C91.6147 6.57233 91.6104 6.737 91.6017 6.893C91.5931 7.049 91.5801 7.18767 91.5627 7.309H86.3757V6.074H90.7827L89.9247 6.386C89.9247 5.84 89.7991 5.41967 89.5477 5.125C89.3051 4.83033 88.9584 4.683 88.5077 4.683C88.1784 4.683 87.8924 4.761 87.6497 4.917C87.4157 5.073 87.2381 5.307 87.1167 5.619C86.9954 5.92233 86.9347 6.308 86.9347 6.776C86.9347 7.23533 86.9997 7.61667 87.1297 7.92C87.2684 8.21467 87.4591 8.43567 87.7017 8.583C87.9531 8.73033 88.2521 8.804 88.5987 8.804C88.9801 8.804 89.2877 8.73033 89.5217 8.583C89.7557 8.43567 89.9377 8.232 90.0677 7.972L91.4847 8.518C91.3461 8.856 91.1337 9.14633 90.8477 9.389C90.5704 9.63167 90.2367 9.818 89.8467 9.948C89.4654 10.0693 89.0537 10.13 88.6117 10.13ZM92.3441 10V3.5H93.8911L94.0081 4.774C94.1814 4.32333 94.4327 3.97667 94.7621 3.734C95.1001 3.49133 95.5204 3.37 96.0231 3.37C96.1704 3.37 96.3047 3.383 96.4261 3.409C96.5474 3.435 96.6471 3.46967 96.7251 3.513L96.5171 5.008C96.4304 4.97333 96.3221 4.94733 96.1921 4.93C96.0707 4.91267 95.9104 4.904 95.7111 4.904C95.4511 4.904 95.1997 4.969 94.9571 5.099C94.7144 5.22033 94.5151 5.411 94.3591 5.671C94.2031 5.92233 94.1251 6.243 94.1251 6.633V10H92.3441ZM100.639 5.853C100.639 5.48033 100.531 5.19 100.314 4.982C100.106 4.774 99.8288 4.67 99.4822 4.67C99.1615 4.67 98.8798 4.75233 98.6372 4.917C98.3945 5.08167 98.2168 5.35467 98.1042 5.736L96.5832 5.268C96.7305 4.696 97.0512 4.23667 97.5452 3.89C98.0478 3.54333 98.7195 3.37 99.5602 3.37C100.132 3.37 100.631 3.461 101.055 3.643C101.48 3.81633 101.809 4.08067 102.043 4.436C102.286 4.79133 102.407 5.23767 102.407 5.775V8.414C102.407 8.74333 102.563 8.908 102.875 8.908C103.023 8.908 103.161 8.88633 103.291 8.843L103.187 9.948C102.962 10.0607 102.68 10.117 102.342 10.117C102.039 10.117 101.766 10.065 101.523 9.961C101.281 9.857 101.09 9.701 100.951 9.493C100.813 9.27633 100.743 9.00767 100.743 8.687V8.635L101.055 8.583C101.003 8.91233 100.86 9.194 100.626 9.428C100.392 9.65333 100.106 9.82667 99.7682 9.948C99.4388 10.0693 99.0965 10.13 98.7412 10.13C98.2992 10.13 97.9178 10.065 97.5972 9.935C97.2765 9.79633 97.0295 9.597 96.8562 9.337C96.6828 9.077 96.5962 8.75633 96.5962 8.375C96.5962 7.88967 96.7522 7.49533 97.0642 7.192C97.3762 6.88 97.8225 6.66767 98.4032 6.555L100.847 6.061L100.834 7.166L99.2742 7.478C98.9795 7.53867 98.7542 7.621 98.5982 7.725C98.4508 7.82033 98.3772 7.98067 98.3772 8.206C98.3772 8.42267 98.4552 8.58733 98.6112 8.7C98.7758 8.81267 98.9708 8.869 99.1962 8.869C99.3782 8.869 99.5558 8.84733 99.7292 8.804C99.9025 8.76067 100.059 8.69133 100.197 8.596C100.336 8.50067 100.444 8.37067 100.522 8.206C100.6 8.04133 100.639 7.842 100.639 7.608V5.853ZM105.374 0.652999V7.998C105.374 8.30133 105.426 8.51367 105.53 8.635C105.634 8.75633 105.807 8.817 106.05 8.817C106.197 8.817 106.319 8.80833 106.414 8.791C106.509 8.765 106.631 8.73033 106.778 8.687L106.622 9.857C106.475 9.94367 106.288 10.0087 106.063 10.052C105.846 10.104 105.63 10.13 105.413 10.13C104.78 10.13 104.317 9.97833 104.022 9.675C103.736 9.363 103.593 8.869 103.593 8.193V0.652999H105.374ZM112.349 10.13C111.812 10.13 111.331 9.99567 110.906 9.727C110.49 9.45833 110.161 9.07267 109.918 8.57C109.684 8.06733 109.567 7.465 109.567 6.763C109.567 6.04367 109.693 5.43267 109.944 4.93C110.195 4.41867 110.533 4.033 110.958 3.773C111.391 3.50433 111.877 3.37 112.414 3.37C112.986 3.37 113.458 3.53467 113.831 3.864C114.204 4.19333 114.446 4.618 114.559 5.138L114.39 5.346V0.652999H116.171V10H114.572L114.455 8.024L114.663 8.128C114.611 8.53533 114.477 8.89067 114.26 9.194C114.043 9.48867 113.77 9.71833 113.441 9.883C113.112 10.0477 112.748 10.13 112.349 10.13ZM112.869 8.765C113.181 8.765 113.45 8.687 113.675 8.531C113.9 8.36633 114.074 8.128 114.195 7.816C114.325 7.504 114.39 7.13133 114.39 6.698C114.39 6.282 114.329 5.931 114.208 5.645C114.087 5.35033 113.913 5.125 113.688 4.969C113.463 4.813 113.198 4.735 112.895 4.735C112.41 4.735 112.028 4.90833 111.751 5.255C111.482 5.593 111.348 6.09133 111.348 6.75C111.348 7.40867 111.482 7.91133 111.751 8.258C112.02 8.596 112.392 8.765 112.869 8.765ZM120.278 10.13C119.594 10.13 118.996 9.99567 118.484 9.727C117.982 9.45833 117.592 9.07267 117.314 8.57C117.037 8.06733 116.898 7.46067 116.898 6.75C116.898 6.03933 117.037 5.43267 117.314 4.93C117.592 4.42733 117.977 4.04167 118.471 3.773C118.974 3.50433 119.546 3.37 120.187 3.37C120.846 3.37 121.405 3.50433 121.864 3.773C122.324 4.033 122.675 4.39267 122.917 4.852C123.16 5.30267 123.281 5.81833 123.281 6.399C123.281 6.57233 123.277 6.737 123.268 6.893C123.26 7.049 123.247 7.18767 123.229 7.309H118.042V6.074H122.449L121.591 6.386C121.591 5.84 121.466 5.41967 121.214 5.125C120.972 4.83033 120.625 4.683 120.174 4.683C119.845 4.683 119.559 4.761 119.316 4.917C119.082 5.073 118.905 5.307 118.783 5.619C118.662 5.92233 118.601 6.308 118.601 6.776C118.601 7.23533 118.666 7.61667 118.796 7.92C118.935 8.21467 119.126 8.43567 119.368 8.583C119.62 8.73033 119.919 8.804 120.265 8.804C120.647 8.804 120.954 8.73033 121.188 8.583C121.422 8.43567 121.604 8.232 121.734 7.972L123.151 8.518C123.013 8.856 122.8 9.14633 122.514 9.389C122.237 9.63167 121.903 9.818 121.513 9.948C121.132 10.0693 120.72 10.13 120.278 10.13ZM134.549 1.42V6.62C134.549 7.79 134.237 8.66967 133.613 9.259C132.989 9.83967 132.079 10.13 130.883 10.13C129.687 10.13 128.777 9.83967 128.153 9.259C127.529 8.66967 127.217 7.79 127.217 6.62V1.42H129.011V6.542C129.011 7.26133 129.163 7.79433 129.466 8.141C129.778 8.48767 130.251 8.661 130.883 8.661C131.516 8.661 131.984 8.48767 132.287 8.141C132.591 7.79433 132.742 7.26133 132.742 6.542V1.42H134.549ZM135.616 10V3.5H137.215L137.319 5.45L137.098 5.242C137.202 4.81733 137.366 4.47067 137.592 4.202C137.817 3.92467 138.09 3.71667 138.411 3.578C138.74 3.43933 139.1 3.37 139.49 3.37C139.94 3.37 140.339 3.45667 140.686 3.63C141.041 3.80333 141.318 4.06767 141.518 4.423C141.726 4.76967 141.83 5.20733 141.83 5.736V10H140.049V6.243C140.049 5.68833 139.94 5.307 139.724 5.099C139.507 4.88233 139.225 4.774 138.879 4.774C138.636 4.774 138.398 4.83467 138.164 4.956C137.938 5.06867 137.752 5.255 137.605 5.515C137.466 5.775 137.397 6.12167 137.397 6.555V10H135.616ZM143.782 2.564C143.409 2.564 143.132 2.486 142.95 2.33C142.768 2.16533 142.677 1.927 142.677 1.615C142.677 1.29433 142.768 1.056 142.95 0.899999C143.132 0.735333 143.409 0.652999 143.782 0.652999C144.154 0.652999 144.432 0.735333 144.614 0.899999C144.796 1.056 144.887 1.29433 144.887 1.615C144.887 1.927 144.796 2.16533 144.614 2.33C144.432 2.486 144.154 2.564 143.782 2.564ZM144.666 3.5V10H142.885V3.5H144.666ZM150.038 3.5H151.884L149.414 10H147.36L144.89 3.5H146.801L148.4 8.635L150.038 3.5ZM155.03 10.13C154.345 10.13 153.747 9.99567 153.236 9.727C152.733 9.45833 152.343 9.07267 152.066 8.57C151.789 8.06733 151.65 7.46067 151.65 6.75C151.65 6.03933 151.789 5.43267 152.066 4.93C152.343 4.42733 152.729 4.04167 153.223 3.773C153.726 3.50433 154.298 3.37 154.939 3.37C155.598 3.37 156.157 3.50433 156.616 3.773C157.075 4.033 157.426 4.39267 157.669 4.852C157.912 5.30267 158.033 5.81833 158.033 6.399C158.033 6.57233 158.029 6.737 158.02 6.893C158.011 7.049 157.998 7.18767 157.981 7.309H152.794V6.074H157.201L156.343 6.386C156.343 5.84 156.217 5.41967 155.966 5.125C155.723 4.83033 155.377 4.683 154.926 4.683C154.597 4.683 154.311 4.761 154.068 4.917C153.834 5.073 153.656 5.307 153.535 5.619C153.414 5.92233 153.353 6.308 153.353 6.776C153.353 7.23533 153.418 7.61667 153.548 7.92C153.687 8.21467 153.877 8.43567 154.12 8.583C154.371 8.73033 154.67 8.804 155.017 8.804C155.398 8.804 155.706 8.73033 155.94 8.583C156.174 8.43567 156.356 8.232 156.486 7.972L157.903 8.518C157.764 8.856 157.552 9.14633 157.266 9.389C156.989 9.63167 156.655 9.818 156.265 9.948C155.884 10.0693 155.472 10.13 155.03 10.13ZM158.762 10V3.5H160.309L160.426 4.774C160.6 4.32333 160.851 3.97667 161.18 3.734C161.518 3.49133 161.939 3.37 162.441 3.37C162.589 3.37 162.723 3.383 162.844 3.409C162.966 3.435 163.065 3.46967 163.143 3.513L162.935 5.008C162.849 4.97333 162.74 4.94733 162.61 4.93C162.489 4.91267 162.329 4.904 162.129 4.904C161.869 4.904 161.618 4.969 161.375 5.099C161.133 5.22033 160.933 5.411 160.777 5.671C160.621 5.92233 160.543 6.243 160.543 6.633V10H158.762ZM165.902 10.13C165.243 10.13 164.641 10.013 164.095 9.779C163.557 9.545 163.12 9.21567 162.782 8.791L163.809 7.751C164.017 8.063 164.294 8.31867 164.641 8.518C164.987 8.71733 165.399 8.817 165.876 8.817C166.214 8.817 166.482 8.76933 166.682 8.674C166.89 8.57 166.994 8.40967 166.994 8.193C166.994 8.05433 166.946 7.93733 166.851 7.842C166.755 7.738 166.565 7.65567 166.279 7.595L165.135 7.361C164.381 7.205 163.843 6.971 163.523 6.659C163.211 6.33833 163.055 5.92667 163.055 5.424C163.055 5.06867 163.159 4.735 163.367 4.423C163.583 4.111 163.904 3.85967 164.329 3.669C164.753 3.46967 165.282 3.37 165.915 3.37C166.565 3.37 167.128 3.474 167.605 3.682C168.09 3.88133 168.471 4.18033 168.749 4.579L167.683 5.619C167.492 5.31567 167.241 5.086 166.929 4.93C166.625 4.76533 166.305 4.683 165.967 4.683C165.724 4.683 165.516 4.709 165.343 4.761C165.169 4.813 165.039 4.88667 164.953 4.982C164.866 5.06867 164.823 5.18133 164.823 5.32C164.823 5.45867 164.883 5.58 165.005 5.684C165.126 5.77933 165.347 5.86167 165.668 5.931L166.994 6.204C167.635 6.334 168.094 6.555 168.372 6.867C168.649 7.17033 168.788 7.53867 168.788 7.972C168.788 8.388 168.675 8.76067 168.45 9.09C168.233 9.41067 167.908 9.66633 167.475 9.857C167.05 10.039 166.526 10.13 165.902 10.13ZM170.325 2.564C169.952 2.564 169.675 2.486 169.493 2.33C169.311 2.16533 169.22 1.927 169.22 1.615C169.22 1.29433 169.311 1.056 169.493 0.899999C169.675 0.735333 169.952 0.652999 170.325 0.652999C170.698 0.652999 170.975 0.735333 171.157 0.899999C171.339 1.056 171.43 1.29433 171.43 1.615C171.43 1.927 171.339 2.16533 171.157 2.33C170.975 2.486 170.698 2.564 170.325 2.564ZM171.209 3.5V10H169.428V3.5H171.209ZM174.774 10.13C174.237 10.13 173.756 9.99567 173.331 9.727C172.915 9.45833 172.586 9.07267 172.343 8.57C172.109 8.06733 171.992 7.465 171.992 6.763C171.992 6.04367 172.118 5.43267 172.369 4.93C172.62 4.41867 172.958 4.033 173.383 3.773C173.816 3.50433 174.302 3.37 174.839 3.37C175.411 3.37 175.883 3.53467 176.256 3.864C176.629 4.19333 176.871 4.618 176.984 5.138L176.815 5.346V0.652999H178.596V10H176.997L176.88 8.024L177.088 8.128C177.036 8.53533 176.902 8.89067 176.685 9.194C176.468 9.48867 176.195 9.71833 175.866 9.883C175.537 10.0477 175.173 10.13 174.774 10.13ZM175.294 8.765C175.606 8.765 175.875 8.687 176.1 8.531C176.325 8.36633 176.499 8.128 176.62 7.816C176.75 7.504 176.815 7.13133 176.815 6.698C176.815 6.282 176.754 5.931 176.633 5.645C176.512 5.35033 176.338 5.125 176.113 4.969C175.888 4.813 175.623 4.735 175.32 4.735C174.835 4.735 174.453 4.90833 174.176 5.255C173.907 5.593 173.773 6.09133 173.773 6.75C173.773 7.40867 173.907 7.91133 174.176 8.258C174.445 8.596 174.817 8.765 175.294 8.765ZM183.392 5.853C183.392 5.48033 183.284 5.19 183.067 4.982C182.859 4.774 182.582 4.67 182.235 4.67C181.915 4.67 181.633 4.75233 181.39 4.917C181.148 5.08167 180.97 5.35467 180.857 5.736L179.336 5.268C179.484 4.696 179.804 4.23667 180.298 3.89C180.801 3.54333 181.473 3.37 182.313 3.37C182.885 3.37 183.384 3.461 183.808 3.643C184.233 3.81633 184.562 4.08067 184.796 4.436C185.039 4.79133 185.16 5.23767 185.16 5.775V8.414C185.16 8.74333 185.316 8.908 185.628 8.908C185.776 8.908 185.914 8.88633 186.044 8.843L185.94 9.948C185.715 10.0607 185.433 10.117 185.095 10.117C184.792 10.117 184.519 10.065 184.276 9.961C184.034 9.857 183.843 9.701 183.704 9.493C183.566 9.27633 183.496 9.00767 183.496 8.687V8.635L183.808 8.583C183.756 8.91233 183.613 9.194 183.379 9.428C183.145 9.65333 182.859 9.82667 182.521 9.948C182.192 10.0693 181.85 10.13 181.494 10.13C181.052 10.13 180.671 10.065 180.35 9.935C180.03 9.79633 179.783 9.597 179.609 9.337C179.436 9.077 179.349 8.75633 179.349 8.375C179.349 7.88967 179.505 7.49533 179.817 7.192C180.129 6.88 180.576 6.66767 181.156 6.555L183.6 6.061L183.587 7.166L182.027 7.478C181.733 7.53867 181.507 7.621 181.351 7.725C181.204 7.82033 181.13 7.98067 181.13 8.206C181.13 8.42267 181.208 8.58733 181.364 8.7C181.529 8.81267 181.724 8.869 181.949 8.869C182.131 8.869 182.309 8.84733 182.482 8.804C182.656 8.76067 182.812 8.69133 182.95 8.596C183.089 8.50067 183.197 8.37067 183.275 8.206C183.353 8.04133 183.392 7.842 183.392 7.608V5.853ZM188.804 10.13C188.266 10.13 187.785 9.99567 187.361 9.727C186.945 9.45833 186.615 9.07267 186.373 8.57C186.139 8.06733 186.022 7.465 186.022 6.763C186.022 6.04367 186.147 5.43267 186.399 4.93C186.65 4.41867 186.988 4.033 187.413 3.773C187.846 3.50433 188.331 3.37 188.869 3.37C189.441 3.37 189.913 3.53467 190.286 3.864C190.658 4.19333 190.901 4.618 191.014 5.138L190.845 5.346V0.652999H192.626V10H191.027L190.91 8.024L191.118 8.128C191.066 8.53533 190.931 8.89067 190.715 9.194C190.498 9.48867 190.225 9.71833 189.896 9.883C189.566 10.0477 189.202 10.13 188.804 10.13ZM189.324 8.765C189.636 8.765 189.904 8.687 190.13 8.531C190.355 8.36633 190.528 8.128 190.65 7.816C190.78 7.504 190.845 7.13133 190.845 6.698C190.845 6.282 190.784 5.931 190.663 5.645C190.541 5.35033 190.368 5.125 190.143 4.969C189.917 4.813 189.653 4.735 189.35 4.735C188.864 4.735 188.483 4.90833 188.206 5.255C187.937 5.593 187.803 6.09133 187.803 6.75C187.803 7.40867 187.937 7.91133 188.206 8.258C188.474 8.596 188.847 8.765 189.324 8.765ZM196.733 10.13C196.048 10.13 195.45 9.99567 194.939 9.727C194.436 9.45833 194.046 9.07267 193.769 8.57C193.492 8.06733 193.353 7.46067 193.353 6.75C193.353 6.03933 193.492 5.43267 193.769 4.93C194.046 4.42733 194.432 4.04167 194.926 3.773C195.429 3.50433 196.001 3.37 196.642 3.37C197.301 3.37 197.86 3.50433 198.319 3.773C198.778 4.033 199.129 4.39267 199.372 4.852C199.615 5.30267 199.736 5.81833 199.736 6.399C199.736 6.57233 199.732 6.737 199.723 6.893C199.714 7.049 199.701 7.18767 199.684 7.309H194.497V6.074H198.904L198.046 6.386C198.046 5.84 197.92 5.41967 197.669 5.125C197.426 4.83033 197.08 4.683 196.629 4.683C196.3 4.683 196.014 4.761 195.771 4.917C195.537 5.073 195.359 5.307 195.238 5.619C195.117 5.92233 195.056 6.308 195.056 6.776C195.056 7.23533 195.121 7.61667 195.251 7.92C195.39 8.21467 195.58 8.43567 195.823 8.583C196.074 8.73033 196.373 8.804 196.72 8.804C197.101 8.804 197.409 8.73033 197.643 8.583C197.877 8.43567 198.059 8.232 198.189 7.972L199.606 8.518C199.467 8.856 199.255 9.14633 198.969 9.389C198.692 9.63167 198.358 9.818 197.968 9.948C197.587 10.0693 197.175 10.13 196.733 10.13ZM203.065 10.13C202.407 10.13 201.804 10.013 201.258 9.779C200.721 9.545 200.283 9.21567 199.945 8.791L200.972 7.751C201.18 8.063 201.458 8.31867 201.804 8.518C202.151 8.71733 202.563 8.817 203.039 8.817C203.377 8.817 203.646 8.76933 203.845 8.674C204.053 8.57 204.157 8.40967 204.157 8.193C204.157 8.05433 204.11 7.93733 204.014 7.842C203.919 7.738 203.728 7.65567 203.442 7.595L202.298 7.361C201.544 7.205 201.007 6.971 200.686 6.659C200.374 6.33833 200.218 5.92667 200.218 5.424C200.218 5.06867 200.322 4.735 200.53 4.423C200.747 4.111 201.068 3.85967 201.492 3.669C201.917 3.46967 202.446 3.37 203.078 3.37C203.728 3.37 204.292 3.474 204.768 3.682C205.254 3.88133 205.635 4.18033 205.912 4.579L204.846 5.619C204.656 5.31567 204.404 5.086 204.092 4.93C203.789 4.76533 203.468 4.683 203.13 4.683C202.888 4.683 202.68 4.709 202.506 4.761C202.333 4.813 202.203 4.88667 202.116 4.982C202.03 5.06867 201.986 5.18133 201.986 5.32C201.986 5.45867 202.047 5.58 202.168 5.684C202.29 5.77933 202.511 5.86167 202.831 5.931L204.157 6.204C204.799 6.334 205.258 6.555 205.535 6.867C205.813 7.17033 205.951 7.53867 205.951 7.972C205.951 8.388 205.839 8.76067 205.613 9.09C205.397 9.41067 205.072 9.66633 204.638 9.857C204.214 10.039 203.689 10.13 203.065 10.13ZM215.705 3.5L213.079 10.403C212.871 10.9923 212.637 11.4603 212.377 11.807C212.126 12.1537 211.831 12.405 211.493 12.561C211.164 12.717 210.769 12.795 210.31 12.795C209.972 12.795 209.66 12.7517 209.374 12.665C209.097 12.587 208.854 12.483 208.646 12.353L209.023 11.066C209.188 11.196 209.361 11.287 209.543 11.339C209.725 11.3997 209.933 11.43 210.167 11.43C210.41 11.43 210.618 11.378 210.791 11.274C210.973 11.17 211.125 10.962 211.246 10.65L211.467 10.091L210.752 8.401L208.763 3.5H210.739L211.974 7.4L212.312 8.7L212.715 7.322L213.898 3.5H215.705ZM27.1193 22V13.42H33.5543V14.863H28.9133V16.995H32.5663V18.373H28.9133V20.557H33.7363V22H27.1193ZM34.3838 22V15.5H35.9828L36.0868 17.45L35.8658 17.242C35.9698 16.8173 36.1345 16.4707 36.3598 16.202C36.5852 15.9247 36.8582 15.7167 37.1788 15.578C37.5082 15.4393 37.8678 15.37 38.2578 15.37C38.7085 15.37 39.1072 15.4567 39.4538 15.63C39.8092 15.8033 40.0865 16.0677 40.2858 16.423C40.4938 16.7697 40.5978 17.2073 40.5978 17.736V22H38.8168V18.243C38.8168 17.6883 38.7085 17.307 38.4918 17.099C38.2752 16.8823 37.9935 16.774 37.6468 16.774C37.4042 16.774 37.1658 16.8347 36.9318 16.956C36.7065 17.0687 36.5202 17.255 36.3728 17.515C36.2342 17.775 36.1648 18.1217 36.1648 18.555V22H34.3838ZM44.2527 22.13C43.594 22.13 42.9917 22.013 42.4457 21.779C41.9083 21.545 41.4707 21.2157 41.1327 20.791L42.1597 19.751C42.3677 20.063 42.645 20.3187 42.9917 20.518C43.3383 20.7173 43.75 20.817 44.2267 20.817C44.5647 20.817 44.8333 20.7693 45.0327 20.674C45.2407 20.57 45.3447 20.4097 45.3447 20.193C45.3447 20.0543 45.297 19.9373 45.2017 19.842C45.1063 19.738 44.9157 19.6557 44.6297 19.595L43.4857 19.361C42.7317 19.205 42.1943 18.971 41.8737 18.659C41.5617 18.3383 41.4057 17.9267 41.4057 17.424C41.4057 17.0687 41.5097 16.735 41.7177 16.423C41.9343 16.111 42.255 15.8597 42.6797 15.669C43.1043 15.4697 43.633 15.37 44.2657 15.37C44.9157 15.37 45.479 15.474 45.9557 15.682C46.441 15.8813 46.8223 16.1803 47.0997 16.579L46.0337 17.619C45.843 17.3157 45.5917 17.086 45.2797 16.93C44.9763 16.7653 44.6557 16.683 44.3177 16.683C44.075 16.683 43.867 16.709 43.6937 16.761C43.5203 16.813 43.3903 16.8867 43.3037 16.982C43.217 17.0687 43.1737 17.1813 43.1737 17.32C43.1737 17.4587 43.2343 17.58 43.3557 17.684C43.477 17.7793 43.698 17.8617 44.0187 17.931L45.3447 18.204C45.986 18.334 46.4453 18.555 46.7227 18.867C47 19.1703 47.1387 19.5387 47.1387 19.972C47.1387 20.388 47.026 20.7607 46.8007 21.09C46.584 21.4107 46.259 21.6663 45.8257 21.857C45.401 22.039 44.8767 22.13 44.2527 22.13ZM50.7695 22.13C50.0849 22.13 49.4869 21.9957 48.9755 21.727C48.4729 21.4583 48.0829 21.0727 47.8055 20.57C47.5282 20.0673 47.3895 19.4607 47.3895 18.75C47.3895 18.0393 47.5282 17.4327 47.8055 16.93C48.0829 16.4273 48.4685 16.0417 48.9625 15.773C49.4652 15.5043 50.0372 15.37 50.6785 15.37C51.3372 15.37 51.8962 15.5043 52.3555 15.773C52.8149 16.033 53.1659 16.3927 53.4085 16.852C53.6512 17.3027 53.7725 17.8183 53.7725 18.399C53.7725 18.5723 53.7682 18.737 53.7595 18.893C53.7509 19.049 53.7379 19.1877 53.7205 19.309H48.5335V18.074H52.9405L52.0825 18.386C52.0825 17.84 51.9569 17.4197 51.7055 17.125C51.4629 16.8303 51.1162 16.683 50.6655 16.683C50.3362 16.683 50.0502 16.761 49.8075 16.917C49.5735 17.073 49.3959 17.307 49.2745 17.619C49.1532 17.9223 49.0925 18.308 49.0925 18.776C49.0925 19.2353 49.1575 19.6167 49.2875 19.92C49.4262 20.2147 49.6169 20.4357 49.8595 20.583C50.1109 20.7303 50.4099 20.804 50.7565 20.804C51.1379 20.804 51.4455 20.7303 51.6795 20.583C51.9135 20.4357 52.0955 20.232 52.2255 19.972L53.6425 20.518C53.5039 20.856 53.2915 21.1463 53.0055 21.389C52.7282 21.6317 52.3945 21.818 52.0045 21.948C51.6232 22.0693 51.2115 22.13 50.7695 22.13ZM54.5019 22V15.5H56.1009L56.2049 17.45L55.9839 17.242C56.0879 16.8173 56.2525 16.4707 56.4779 16.202C56.7032 15.9247 56.9762 15.7167 57.2969 15.578C57.6262 15.4393 57.9859 15.37 58.3759 15.37C58.8265 15.37 59.2252 15.4567 59.5719 15.63C59.9272 15.8033 60.2045 16.0677 60.4039 16.423C60.6119 16.7697 60.7159 17.2073 60.7159 17.736V22H58.9349V18.243C58.9349 17.6883 58.8265 17.307 58.6099 17.099C58.3932 16.8823 58.1115 16.774 57.7649 16.774C57.5222 16.774 57.2839 16.8347 57.0499 16.956C56.8245 17.0687 56.6382 17.255 56.4909 17.515C56.3522 17.775 56.2829 18.1217 56.2829 18.555V22H54.5019ZM60.1439 12.666C60.1265 13.0993 60.0485 13.4633 59.9099 13.758C59.7799 14.044 59.6022 14.2607 59.3769 14.408C59.1515 14.5467 58.8915 14.616 58.5969 14.616C58.3542 14.616 58.1462 14.577 57.9729 14.499C57.7995 14.4123 57.6479 14.3213 57.5179 14.226C57.3965 14.122 57.2752 14.031 57.1539 13.953C57.0412 13.8663 56.9199 13.823 56.7899 13.823C56.6252 13.823 56.4995 13.8923 56.4129 14.031C56.3349 14.161 56.2785 14.356 56.2439 14.616H55.1519C55.1865 13.966 55.3425 13.4807 55.6199 13.16C55.9059 12.8307 56.2872 12.666 56.7639 12.666C56.9979 12.666 57.1972 12.7093 57.3619 12.796C57.5352 12.874 57.6825 12.965 57.8039 13.069C57.9252 13.173 58.0379 13.264 58.1419 13.342C58.2545 13.42 58.3759 13.459 58.5059 13.459C58.6792 13.459 58.8049 13.394 58.8829 13.264C58.9695 13.1253 59.0259 12.926 59.0519 12.666H60.1439ZM65.4757 17.853C65.4757 17.4803 65.3673 17.19 65.1507 16.982C64.9427 16.774 64.6653 16.67 64.3187 16.67C63.998 16.67 63.7163 16.7523 63.4737 16.917C63.231 17.0817 63.0533 17.3547 62.9407 17.736L61.4197 17.268C61.567 16.696 61.8877 16.2367 62.3817 15.89C62.8843 15.5433 63.556 15.37 64.3967 15.37C64.9687 15.37 65.467 15.461 65.8917 15.643C66.3163 15.8163 66.6457 16.0807 66.8797 16.436C67.1223 16.7913 67.2437 17.2377 67.2437 17.775V20.414C67.2437 20.7433 67.3997 20.908 67.7117 20.908C67.859 20.908 67.9977 20.8863 68.1277 20.843L68.0237 21.948C67.7983 22.0607 67.5167 22.117 67.1787 22.117C66.8753 22.117 66.6023 22.065 66.3597 21.961C66.117 21.857 65.9263 21.701 65.7877 21.493C65.649 21.2763 65.5797 21.0077 65.5797 20.687V20.635L65.8917 20.583C65.8397 20.9123 65.6967 21.194 65.4627 21.428C65.2287 21.6533 64.9427 21.8267 64.6047 21.948C64.2753 22.0693 63.933 22.13 63.5777 22.13C63.1357 22.13 62.7543 22.065 62.4337 21.935C62.113 21.7963 61.866 21.597 61.6927 21.337C61.5193 21.077 61.4327 20.7563 61.4327 20.375C61.4327 19.8897 61.5887 19.4953 61.9007 19.192C62.2127 18.88 62.659 18.6677 63.2397 18.555L65.6837 18.061L65.6707 19.166L64.1107 19.478C63.816 19.5387 63.5907 19.621 63.4347 19.725C63.2873 19.8203 63.2137 19.9807 63.2137 20.206C63.2137 20.4227 63.2917 20.5873 63.4477 20.7C63.6123 20.8127 63.8073 20.869 64.0327 20.869C64.2147 20.869 64.3923 20.8473 64.5657 20.804C64.739 20.7607 64.895 20.6913 65.0337 20.596C65.1723 20.5007 65.2807 20.3707 65.3587 20.206C65.4367 20.0413 65.4757 19.842 65.4757 19.608V17.853ZM68.4555 22V15.5H70.0545L70.1585 17.45L69.9375 17.242C70.0415 16.8173 70.2062 16.4707 70.4315 16.202C70.6569 15.9247 70.9299 15.7167 71.2505 15.578C71.5799 15.4393 71.9395 15.37 72.3295 15.37C72.7802 15.37 73.1789 15.4567 73.5255 15.63C73.8809 15.8033 74.1582 16.0677 74.3575 16.423C74.5655 16.7697 74.6695 17.2073 74.6695 17.736V22H72.8885V18.243C72.8885 17.6883 72.7802 17.307 72.5635 17.099C72.3469 16.8823 72.0652 16.774 71.7185 16.774C71.4759 16.774 71.2375 16.8347 71.0035 16.956C70.7782 17.0687 70.5919 17.255 70.4445 17.515C70.3059 17.775 70.2365 18.1217 70.2365 18.555V22H68.4555ZM75.3474 22V20.856L78.2334 17.528L78.9744 16.787L77.8954 16.813H75.3734V15.5H80.9504V16.644L78.0774 19.959L77.3364 20.713L78.5194 20.687H81.0544V22H75.3474ZM85.454 17.853C85.454 17.4803 85.3457 17.19 85.129 16.982C84.921 16.774 84.6437 16.67 84.297 16.67C83.9764 16.67 83.6947 16.7523 83.452 16.917C83.2094 17.0817 83.0317 17.3547 82.919 17.736L81.398 17.268C81.5454 16.696 81.866 16.2367 82.36 15.89C82.8627 15.5433 83.5344 15.37 84.375 15.37C84.947 15.37 85.4454 15.461 85.87 15.643C86.2947 15.8163 86.624 16.0807 86.858 16.436C87.1007 16.7913 87.222 17.2377 87.222 17.775V20.414C87.222 20.7433 87.378 20.908 87.69 20.908C87.8374 20.908 87.976 20.8863 88.106 20.843L88.002 21.948C87.7767 22.0607 87.495 22.117 87.157 22.117C86.8537 22.117 86.5807 22.065 86.338 21.961C86.0954 21.857 85.9047 21.701 85.766 21.493C85.6274 21.2763 85.558 21.0077 85.558 20.687V20.635L85.87 20.583C85.818 20.9123 85.675 21.194 85.441 21.428C85.207 21.6533 84.921 21.8267 84.583 21.948C84.2537 22.0693 83.9114 22.13 83.556 22.13C83.114 22.13 82.7327 22.065 82.412 21.935C82.0914 21.7963 81.8444 21.597 81.671 21.337C81.4977 21.077 81.411 20.7563 81.411 20.375C81.411 19.8897 81.567 19.4953 81.879 19.192C82.191 18.88 82.6374 18.6677 83.218 18.555L85.662 18.061L85.649 19.166L84.089 19.478C83.7944 19.5387 83.569 19.621 83.413 19.725C83.2657 19.8203 83.192 19.9807 83.192 20.206C83.192 20.4227 83.27 20.5873 83.426 20.7C83.5907 20.8127 83.7857 20.869 84.011 20.869C84.193 20.869 84.3707 20.8473 84.544 20.804C84.7174 20.7607 84.8734 20.6913 85.012 20.596C85.1507 20.5007 85.259 20.3707 85.337 20.206C85.415 20.0413 85.454 19.842 85.454 19.608V17.853ZM91.0339 22.13C90.3752 22.13 89.7729 22.013 89.2269 21.779C88.6895 21.545 88.2519 21.2157 87.9139 20.791L88.9409 19.751C89.1489 20.063 89.4262 20.3187 89.7729 20.518C90.1195 20.7173 90.5312 20.817 91.0079 20.817C91.3459 20.817 91.6145 20.7693 91.8139 20.674C92.0219 20.57 92.1259 20.4097 92.1259 20.193C92.1259 20.0543 92.0782 19.9373 91.9829 19.842C91.8875 19.738 91.6969 19.6557 91.4109 19.595L90.2669 19.361C89.5129 19.205 88.9755 18.971 88.6549 18.659C88.3429 18.3383 88.1869 17.9267 88.1869 17.424C88.1869 17.0687 88.2909 16.735 88.4989 16.423C88.7155 16.111 89.0362 15.8597 89.4609 15.669C89.8855 15.4697 90.4142 15.37 91.0469 15.37C91.6969 15.37 92.2602 15.474 92.7369 15.682C93.2222 15.8813 93.6035 16.1803 93.8809 16.579L92.8149 17.619C92.6242 17.3157 92.3729 17.086 92.0609 16.93C91.7575 16.7653 91.4369 16.683 91.0989 16.683C90.8562 16.683 90.6482 16.709 90.4749 16.761C90.3015 16.813 90.1715 16.8867 90.0849 16.982C89.9982 17.0687 89.9549 17.1813 89.9549 17.32C89.9549 17.4587 90.0155 17.58 90.1369 17.684C90.2582 17.7793 90.4792 17.8617 90.7999 17.931L92.1259 18.204C92.7672 18.334 93.2265 18.555 93.5039 18.867C93.7812 19.1703 93.9199 19.5387 93.9199 19.972C93.9199 20.388 93.8072 20.7607 93.5819 21.09C93.3652 21.4107 93.0402 21.6663 92.6069 21.857C92.1822 22.039 91.6579 22.13 91.0339 22.13ZM105.004 22H103.145L102.43 19.907H99.1409L98.4259 22H96.5929L99.7259 13.42H101.871L105.004 22ZM99.5439 18.581H102.027L100.779 14.837L99.5439 18.581ZM105.315 22V15.5H106.862L106.979 16.774C107.152 16.3233 107.403 15.9767 107.733 15.734C108.071 15.4913 108.491 15.37 108.994 15.37C109.141 15.37 109.275 15.383 109.397 15.409C109.518 15.435 109.618 15.4697 109.696 15.513L109.488 17.008C109.401 16.9733 109.293 16.9473 109.163 16.93C109.041 16.9127 108.881 16.904 108.682 16.904C108.422 16.904 108.17 16.969 107.928 17.099C107.685 17.2203 107.486 17.411 107.33 17.671C107.174 17.9223 107.096 18.243 107.096 18.633V22H105.315ZM112.079 13.511V19.881C112.079 20.193 112.157 20.4227 112.313 20.57C112.477 20.7087 112.698 20.778 112.976 20.778C113.201 20.778 113.392 20.7477 113.548 20.687C113.712 20.6177 113.86 20.5267 113.99 20.414L114.276 21.597C114.068 21.7617 113.808 21.8917 113.496 21.987C113.184 22.0823 112.854 22.13 112.508 22.13C112.074 22.13 111.689 22.065 111.351 21.935C111.021 21.805 110.761 21.597 110.571 21.311C110.389 21.025 110.298 20.6437 110.298 20.167V14.005L112.079 13.511ZM114.159 15.5V16.826H109.102V15.5H114.159ZM116.365 15.5V22H114.584V15.5H116.365ZM115.52 12.354H117.236L115.936 14.564H114.623L115.52 12.354ZM120.073 22.13C119.414 22.13 118.812 22.013 118.266 21.779C117.728 21.545 117.291 21.2157 116.953 20.791L117.98 19.751C118.188 20.063 118.465 20.3187 118.812 20.518C119.158 20.7173 119.57 20.817 120.047 20.817C120.385 20.817 120.653 20.7693 120.853 20.674C121.061 20.57 121.165 20.4097 121.165 20.193C121.165 20.0543 121.117 19.9373 121.022 19.842C120.926 19.738 120.736 19.6557 120.45 19.595L119.306 19.361C118.552 19.205 118.014 18.971 117.694 18.659C117.382 18.3383 117.226 17.9267 117.226 17.424C117.226 17.0687 117.33 16.735 117.538 16.423C117.754 16.111 118.075 15.8597 118.5 15.669C118.924 15.4697 119.453 15.37 120.086 15.37C120.736 15.37 121.299 15.474 121.776 15.682C122.261 15.8813 122.642 16.1803 122.92 16.579L121.854 17.619C121.663 17.3157 121.412 17.086 121.1 16.93C120.796 16.7653 120.476 16.683 120.138 16.683C119.895 16.683 119.687 16.709 119.514 16.761C119.34 16.813 119.21 16.8867 119.124 16.982C119.037 17.0687 118.994 17.1813 118.994 17.32C118.994 17.4587 119.054 17.58 119.176 17.684C119.297 17.7793 119.518 17.8617 119.839 17.931L121.165 18.204C121.806 18.334 122.265 18.555 122.543 18.867C122.82 19.1703 122.959 19.5387 122.959 19.972C122.959 20.388 122.846 20.7607 122.621 21.09C122.404 21.4107 122.079 21.6663 121.646 21.857C121.221 22.039 120.697 22.13 120.073 22.13ZM125.9 13.511V19.881C125.9 20.193 125.978 20.4227 126.134 20.57C126.299 20.7087 126.52 20.778 126.797 20.778C127.022 20.778 127.213 20.7477 127.369 20.687C127.534 20.6177 127.681 20.5267 127.811 20.414L128.097 21.597C127.889 21.7617 127.629 21.8917 127.317 21.987C127.005 22.0823 126.676 22.13 126.329 22.13C125.896 22.13 125.51 22.065 125.172 21.935C124.843 21.805 124.583 21.597 124.392 21.311C124.21 21.025 124.119 20.6437 124.119 20.167V14.005L125.9 13.511ZM127.98 15.5V16.826H122.923V15.5H127.98ZM129.302 14.564C128.929 14.564 128.652 14.486 128.47 14.33C128.288 14.1653 128.197 13.927 128.197 13.615C128.197 13.2943 128.288 13.056 128.47 12.9C128.652 12.7353 128.929 12.653 129.302 12.653C129.674 12.653 129.952 12.7353 130.134 12.9C130.316 13.056 130.407 13.2943 130.407 13.615C130.407 13.927 130.316 14.1653 130.134 14.33C129.952 14.486 129.674 14.564 129.302 14.564ZM130.186 15.5V22H128.405V15.5H130.186ZM134.245 15.37C134.825 15.37 135.315 15.4567 135.714 15.63C136.121 15.7947 136.446 16.0243 136.689 16.319C136.94 16.605 137.118 16.9257 137.222 17.281L135.558 17.879C135.471 17.489 135.324 17.1943 135.116 16.995C134.908 16.7957 134.626 16.696 134.271 16.696C133.941 16.696 133.66 16.774 133.426 16.93C133.192 17.0773 133.014 17.307 132.893 17.619C132.771 17.9223 132.711 18.3037 132.711 18.763C132.711 19.2223 132.771 19.6037 132.893 19.907C133.023 20.2103 133.205 20.4357 133.439 20.583C133.681 20.7303 133.963 20.804 134.284 20.804C134.544 20.804 134.765 20.7607 134.947 20.674C135.129 20.5787 135.276 20.4443 135.389 20.271C135.51 20.0977 135.592 19.8897 135.636 19.647L137.248 20.167C137.152 20.557 136.975 20.8993 136.715 21.194C136.455 21.4887 136.121 21.7183 135.714 21.883C135.306 22.0477 134.834 22.13 134.297 22.13C133.629 22.13 133.04 21.9957 132.529 21.727C132.017 21.4583 131.623 21.0727 131.346 20.57C131.068 20.0673 130.93 19.4607 130.93 18.75C130.93 18.0393 131.068 17.4327 131.346 16.93C131.623 16.4273 132.013 16.0417 132.516 15.773C133.018 15.5043 133.595 15.37 134.245 15.37ZM141.557 17.853C141.557 17.4803 141.448 17.19 141.232 16.982C141.024 16.774 140.746 16.67 140.4 16.67C140.079 16.67 139.797 16.7523 139.555 16.917C139.312 17.0817 139.134 17.3547 139.022 17.736L137.501 17.268C137.648 16.696 137.969 16.2367 138.463 15.89C138.965 15.5433 139.637 15.37 140.478 15.37C141.05 15.37 141.548 15.461 141.973 15.643C142.397 15.8163 142.727 16.0807 142.961 16.436C143.203 16.7913 143.325 17.2377 143.325 17.775V20.414C143.325 20.7433 143.481 20.908 143.793 20.908C143.94 20.908 144.079 20.8863 144.209 20.843L144.105 21.948C143.879 22.0607 143.598 22.117 143.26 22.117C142.956 22.117 142.683 22.065 142.441 21.961C142.198 21.857 142.007 21.701 141.869 21.493C141.73 21.2763 141.661 21.0077 141.661 20.687V20.635L141.973 20.583C141.921 20.9123 141.778 21.194 141.544 21.428C141.31 21.6533 141.024 21.8267 140.686 21.948C140.356 22.0693 140.014 22.13 139.659 22.13C139.217 22.13 138.835 22.065 138.515 21.935C138.194 21.7963 137.947 21.597 137.774 21.337C137.6 21.077 137.514 20.7563 137.514 20.375C137.514 19.8897 137.67 19.4953 137.982 19.192C138.294 18.88 138.74 18.6677 139.321 18.555L141.765 18.061L141.752 19.166L140.192 19.478C139.897 19.5387 139.672 19.621 139.516 19.725C139.368 19.8203 139.295 19.9807 139.295 20.206C139.295 20.4227 139.373 20.5873 139.529 20.7C139.693 20.8127 139.888 20.869 140.114 20.869C140.296 20.869 140.473 20.8473 140.647 20.804C140.82 20.7607 140.976 20.6913 141.115 20.596C141.253 20.5007 141.362 20.3707 141.44 20.206C141.518 20.0413 141.557 19.842 141.557 19.608V17.853ZM147.136 22.13C146.478 22.13 145.875 22.013 145.329 21.779C144.792 21.545 144.354 21.2157 144.016 20.791L145.043 19.751C145.251 20.063 145.529 20.3187 145.875 20.518C146.222 20.7173 146.634 20.817 147.11 20.817C147.448 20.817 147.717 20.7693 147.916 20.674C148.124 20.57 148.228 20.4097 148.228 20.193C148.228 20.0543 148.181 19.9373 148.085 19.842C147.99 19.738 147.799 19.6557 147.513 19.595L146.369 19.361C145.615 19.205 145.078 18.971 144.757 18.659C144.445 18.3383 144.289 17.9267 144.289 17.424C144.289 17.0687 144.393 16.735 144.601 16.423C144.818 16.111 145.139 15.8597 145.563 15.669C145.988 15.4697 146.517 15.37 147.149 15.37C147.799 15.37 148.363 15.474 148.839 15.682C149.325 15.8813 149.706 16.1803 149.983 16.579L148.917 17.619C148.727 17.3157 148.475 17.086 148.163 16.93C147.86 16.7653 147.539 16.683 147.201 16.683C146.959 16.683 146.751 16.709 146.577 16.761C146.404 16.813 146.274 16.8867 146.187 16.982C146.101 17.0687 146.057 17.1813 146.057 17.32C146.057 17.4587 146.118 17.58 146.239 17.684C146.361 17.7793 146.582 17.8617 146.902 17.931L148.228 18.204C148.87 18.334 149.329 18.555 149.606 18.867C149.884 19.1703 150.022 19.5387 150.022 19.972C150.022 20.388 149.91 20.7607 149.684 21.09C149.468 21.4107 149.143 21.6663 148.709 21.857C148.285 22.039 147.76 22.13 147.136 22.13ZM157.171 13.29C157.951 13.29 158.636 13.4243 159.225 13.693C159.815 13.9617 160.317 14.3603 160.733 14.889L159.732 16.046C159.377 15.5953 158.987 15.266 158.562 15.058C158.146 14.8413 157.661 14.733 157.106 14.733C156.742 14.733 156.439 14.7807 156.196 14.876C155.962 14.9713 155.789 15.097 155.676 15.253C155.572 15.409 155.52 15.5823 155.52 15.773C155.52 16.007 155.611 16.2063 155.793 16.371C155.975 16.527 156.287 16.657 156.729 16.761L158.328 17.125C159.178 17.3157 159.784 17.6017 160.148 17.983C160.521 18.3557 160.707 18.841 160.707 19.439C160.707 20.0023 160.56 20.4877 160.265 20.895C159.971 21.2937 159.559 21.6013 159.03 21.818C158.502 22.026 157.895 22.13 157.21 22.13C156.612 22.13 156.062 22.0607 155.559 21.922C155.065 21.7747 154.623 21.5753 154.233 21.324C153.843 21.0727 153.518 20.7823 153.258 20.453L154.272 19.244C154.472 19.5213 154.719 19.7683 155.013 19.985C155.308 20.2017 155.642 20.375 156.014 20.505C156.396 20.6263 156.794 20.687 157.21 20.687C157.566 20.687 157.865 20.648 158.107 20.57C158.359 20.4833 158.545 20.3663 158.666 20.219C158.796 20.063 158.861 19.8767 158.861 19.66C158.861 19.4347 158.783 19.244 158.627 19.088C158.48 18.9233 158.203 18.7977 157.795 18.711L156.053 18.321C155.551 18.1997 155.117 18.0437 154.753 17.853C154.398 17.6537 154.125 17.4023 153.934 17.099C153.752 16.787 153.661 16.4187 153.661 15.994C153.661 15.4827 153.8 15.0233 154.077 14.616C154.355 14.2087 154.753 13.888 155.273 13.654C155.802 13.4113 156.435 13.29 157.171 13.29ZM163.667 22.13C163.233 22.13 162.843 22.052 162.497 21.896C162.15 21.74 161.873 21.493 161.665 21.155C161.465 20.8083 161.366 20.362 161.366 19.816V15.5H163.147V19.387C163.147 19.8897 163.251 20.2407 163.459 20.44C163.667 20.6307 163.966 20.726 164.356 20.726C164.538 20.726 164.715 20.6957 164.889 20.635C165.062 20.5657 165.214 20.4617 165.344 20.323C165.482 20.1843 165.591 20.0067 165.669 19.79C165.747 19.5647 165.786 19.3003 165.786 18.997V15.5H167.567V22H165.981L165.916 20.869C165.699 21.3023 165.4 21.623 165.019 21.831C164.646 22.0303 164.195 22.13 163.667 22.13ZM168.661 24.73V15.5H170.26L170.377 17.567L170.156 17.333C170.234 16.9517 170.377 16.6137 170.585 16.319C170.801 16.0243 171.074 15.7947 171.404 15.63C171.733 15.4567 172.101 15.37 172.509 15.37C173.037 15.37 173.51 15.5043 173.926 15.773C174.342 16.0417 174.667 16.4273 174.901 16.93C175.143 17.424 175.265 18.0263 175.265 18.737C175.265 19.4477 175.143 20.0587 174.901 20.57C174.658 21.0727 174.324 21.4583 173.9 21.727C173.484 21.9957 173.007 22.13 172.47 22.13C171.898 22.13 171.421 21.9697 171.04 21.649C170.667 21.3283 170.411 20.9253 170.273 20.44L170.442 20.167V24.73H168.661ZM171.95 20.765C172.426 20.765 172.799 20.596 173.068 20.258C173.345 19.9113 173.484 19.4087 173.484 18.75C173.484 18.0913 173.349 17.593 173.081 17.255C172.821 16.9083 172.452 16.735 171.976 16.735C171.672 16.735 171.404 16.8173 171.17 16.982C170.944 17.138 170.767 17.3677 170.637 17.671C170.507 17.9657 170.442 18.3253 170.442 18.75C170.442 19.1573 170.502 19.517 170.624 19.829C170.745 20.1323 170.918 20.3663 171.144 20.531C171.378 20.687 171.646 20.765 171.95 20.765ZM179.047 22.13C178.362 22.13 177.764 21.9957 177.253 21.727C176.75 21.4583 176.36 21.0727 176.083 20.57C175.806 20.0673 175.667 19.4607 175.667 18.75C175.667 18.0393 175.806 17.4327 176.083 16.93C176.36 16.4273 176.746 16.0417 177.24 15.773C177.743 15.5043 178.315 15.37 178.956 15.37C179.615 15.37 180.174 15.5043 180.633 15.773C181.092 16.033 181.443 16.3927 181.686 16.852C181.929 17.3027 182.05 17.8183 182.05 18.399C182.05 18.5723 182.046 18.737 182.037 18.893C182.028 19.049 182.015 19.1877 181.998 19.309H176.811V18.074H181.218L180.36 18.386C180.36 17.84 180.234 17.4197 179.983 17.125C179.74 16.8303 179.394 16.683 178.943 16.683C178.614 16.683 178.328 16.761 178.085 16.917C177.851 17.073 177.673 17.307 177.552 17.619C177.431 17.9223 177.37 18.308 177.37 18.776C177.37 19.2353 177.435 19.6167 177.565 19.92C177.704 20.2147 177.894 20.4357 178.137 20.583C178.388 20.7303 178.687 20.804 179.034 20.804C179.415 20.804 179.723 20.7303 179.957 20.583C180.191 20.4357 180.373 20.232 180.503 19.972L181.92 20.518C181.781 20.856 181.569 21.1463 181.283 21.389C181.006 21.6317 180.672 21.818 180.282 21.948C179.901 22.0693 179.489 22.13 179.047 22.13ZM182.779 22V15.5H184.326L184.443 16.774C184.617 16.3233 184.868 15.9767 185.197 15.734C185.535 15.4913 185.956 15.37 186.458 15.37C186.606 15.37 186.74 15.383 186.861 15.409C186.983 15.435 187.082 15.4697 187.16 15.513L186.952 17.008C186.866 16.9733 186.757 16.9473 186.627 16.93C186.506 16.9127 186.346 16.904 186.146 16.904C185.886 16.904 185.635 16.969 185.392 17.099C185.15 17.2203 184.95 17.411 184.794 17.671C184.638 17.9223 184.56 18.243 184.56 18.633V22H182.779ZM188.381 14.564C188.008 14.564 187.731 14.486 187.549 14.33C187.367 14.1653 187.276 13.927 187.276 13.615C187.276 13.2943 187.367 13.056 187.549 12.9C187.731 12.7353 188.008 12.653 188.381 12.653C188.753 12.653 189.031 12.7353 189.213 12.9C189.395 13.056 189.486 13.2943 189.486 13.615C189.486 13.927 189.395 14.1653 189.213 14.33C189.031 14.486 188.753 14.564 188.381 14.564ZM189.265 15.5V22H187.484V15.5H189.265ZM193.337 15.37C193.995 15.37 194.572 15.5043 195.066 15.773C195.568 16.0417 195.958 16.4273 196.236 16.93C196.522 17.4327 196.665 18.0393 196.665 18.75C196.665 19.452 196.522 20.0587 196.236 20.57C195.958 21.0727 195.568 21.4583 195.066 21.727C194.572 21.9957 193.995 22.13 193.337 22.13C192.687 22.13 192.11 21.9957 191.608 21.727C191.105 21.4583 190.711 21.0727 190.425 20.57C190.147 20.0587 190.009 19.452 190.009 18.75C190.009 18.0393 190.147 17.4327 190.425 16.93C190.711 16.4273 191.105 16.0417 191.608 15.773C192.11 15.5043 192.687 15.37 193.337 15.37ZM193.337 16.696C193.007 16.696 192.726 16.774 192.492 16.93C192.266 17.0773 192.093 17.3027 191.972 17.606C191.85 17.9093 191.79 18.2907 191.79 18.75C191.79 19.2093 191.85 19.5907 191.972 19.894C192.093 20.1973 192.266 20.427 192.492 20.583C192.726 20.7303 193.007 20.804 193.337 20.804C193.657 20.804 193.93 20.7303 194.156 20.583C194.39 20.427 194.567 20.1973 194.689 19.894C194.81 19.5907 194.871 19.2093 194.871 18.75C194.871 18.2907 194.81 17.9093 194.689 17.606C194.567 17.3027 194.39 17.0773 194.156 16.93C193.93 16.774 193.657 16.696 193.337 16.696ZM197.375 22V15.5H198.922L199.039 16.774C199.212 16.3233 199.464 15.9767 199.793 15.734C200.131 15.4913 200.551 15.37 201.054 15.37C201.201 15.37 201.336 15.383 201.457 15.409C201.578 15.435 201.678 15.4697 201.756 15.513L201.548 17.008C201.461 16.9733 201.353 16.9473 201.223 16.93C201.102 16.9127 200.941 16.904 200.742 16.904C200.482 16.904 200.231 16.969 199.988 17.099C199.745 17.2203 199.546 17.411 199.39 17.671C199.234 17.9223 199.156 18.243 199.156 18.633V22H197.375ZM204.968 22.13C204.284 22.13 203.686 21.9957 203.174 21.727C202.672 21.4583 202.282 21.0727 202.004 20.57C201.727 20.0673 201.588 19.4607 201.588 18.75C201.588 18.0393 201.727 17.4327 202.004 16.93C202.282 16.4273 202.667 16.0417 203.161 15.773C203.664 15.5043 204.236 15.37 204.877 15.37C205.536 15.37 206.095 15.5043 206.554 15.773C207.014 16.033 207.365 16.3927 207.607 16.852C207.85 17.3027 207.971 17.8183 207.971 18.399C207.971 18.5723 207.967 18.737 207.958 18.893C207.95 19.049 207.937 19.1877 207.919 19.309H202.732V18.074H207.139L206.281 18.386C206.281 17.84 206.156 17.4197 205.904 17.125C205.662 16.8303 205.315 16.683 204.864 16.683C204.535 16.683 204.249 16.761 204.006 16.917C203.772 17.073 203.595 17.307 203.473 17.619C203.352 17.9223 203.291 18.308 203.291 18.776C203.291 19.2353 203.356 19.6167 203.486 19.92C203.625 20.2147 203.816 20.4357 204.058 20.583C204.31 20.7303 204.609 20.804 204.955 20.804C205.337 20.804 205.644 20.7303 205.878 20.583C206.112 20.4357 206.294 20.232 206.424 19.972L207.841 20.518C207.703 20.856 207.49 21.1463 207.204 21.389C206.927 21.6317 206.593 21.818 206.203 21.948C205.822 22.0693 205.41 22.13 204.968 22.13ZM211.301 22.13C210.642 22.13 210.04 22.013 209.494 21.779C208.956 21.545 208.519 21.2157 208.181 20.791L209.208 19.751C209.416 20.063 209.693 20.3187 210.04 20.518C210.386 20.7173 210.798 20.817 211.275 20.817C211.613 20.817 211.881 20.7693 212.081 20.674C212.289 20.57 212.393 20.4097 212.393 20.193C212.393 20.0543 212.345 19.9373 212.25 19.842C212.154 19.738 211.964 19.6557 211.678 19.595L210.534 19.361C209.78 19.205 209.242 18.971 208.922 18.659C208.61 18.3383 208.454 17.9267 208.454 17.424C208.454 17.0687 208.558 16.735 208.766 16.423C208.982 16.111 209.303 15.8597 209.728 15.669C210.152 15.4697 210.681 15.37 211.314 15.37C211.964 15.37 212.527 15.474 213.004 15.682C213.489 15.8813 213.87 16.1803 214.148 16.579L213.082 17.619C212.891 17.3157 212.64 17.086 212.328 16.93C212.024 16.7653 211.704 16.683 211.366 16.683C211.123 16.683 210.915 16.709 210.742 16.761C210.568 16.813 210.438 16.8867 210.352 16.982C210.265 17.0687 210.222 17.1813 210.222 17.32C210.222 17.4587 210.282 17.58 210.404 17.684C210.525 17.7793 210.746 17.8617 211.067 17.931L212.393 18.204C213.034 18.334 213.493 18.555 213.771 18.867C214.048 19.1703 214.187 19.5387 214.187 19.972C214.187 20.388 214.074 20.7607 213.849 21.09C213.632 21.4107 213.307 21.6663 212.874 21.857C212.449 22.039 211.925 22.13 211.301 22.13Z" fill="#0F0F0F"/>
<path d="M69.2395 35.803C69.0575 36.2883 68.7975 36.7087 68.4595 37.064C68.1215 37.4107 67.7228 37.675 67.2635 37.857C66.8128 38.039 66.3188 38.13 65.7815 38.13C64.9668 38.13 64.2605 37.9523 63.6625 37.597C63.0732 37.233 62.6138 36.7217 62.2845 36.063C61.9638 35.4043 61.8035 34.62 61.8035 33.71C61.8035 32.8 61.9638 32.0157 62.2845 31.357C62.6138 30.6983 63.0732 30.1913 63.6625 29.836C64.2605 29.472 64.9582 29.29 65.7555 29.29C66.3102 29.29 66.8042 29.368 67.2375 29.524C67.6708 29.6713 68.0392 29.8967 68.3425 30.2C68.6545 30.4947 68.9015 30.8587 69.0835 31.292L68.0565 31.773C67.8658 31.279 67.5885 30.9063 67.2245 30.655C66.8692 30.395 66.4055 30.265 65.8335 30.265C65.2528 30.265 64.7415 30.4037 64.2995 30.681C63.8575 30.9497 63.5108 31.3397 63.2595 31.851C63.0168 32.3623 62.8955 32.982 62.8955 33.71C62.8955 34.4293 63.0125 35.049 63.2465 35.569C63.4805 36.0803 63.8142 36.4747 64.2475 36.752C64.6808 37.0207 65.1922 37.155 65.7815 37.155C66.3535 37.155 66.8518 37.012 67.2765 36.726C67.7012 36.4313 68.0088 35.9937 68.1995 35.413L69.2395 35.803ZM73.9136 29.29C74.7283 29.29 75.4303 29.472 76.0196 29.836C76.6176 30.1913 77.0769 30.6983 77.3976 31.357C77.7269 32.0157 77.8916 32.8 77.8916 33.71C77.8916 34.62 77.7269 35.4043 77.3976 36.063C77.0769 36.7217 76.6176 37.233 76.0196 37.597C75.4303 37.9523 74.7283 38.13 73.9136 38.13C73.0989 38.13 72.3926 37.9523 71.7946 37.597C71.2053 37.233 70.7459 36.7217 70.4166 36.063C70.0959 35.4043 69.9356 34.62 69.9356 33.71C69.9356 32.8 70.0959 32.0157 70.4166 31.357C70.7459 30.6983 71.2053 30.1913 71.7946 29.836C72.3926 29.472 73.0989 29.29 73.9136 29.29ZM73.9136 30.265C73.3243 30.265 72.8129 30.4037 72.3796 30.681C71.9463 30.9497 71.6126 31.344 71.3786 31.864C71.1446 32.3753 71.0276 32.9907 71.0276 33.71C71.0276 34.4293 71.1446 35.049 71.3786 35.569C71.6126 36.0803 71.9463 36.4747 72.3796 36.752C72.8129 37.0207 73.3243 37.155 73.9136 37.155C74.5116 37.155 75.0229 37.0207 75.4476 36.752C75.8809 36.4747 76.2146 36.0803 76.4486 35.569C76.6826 35.049 76.7996 34.4293 76.7996 33.71C76.7996 32.9907 76.6826 32.3753 76.4486 31.864C76.2146 31.344 75.8809 30.9497 75.4476 30.681C75.0229 30.4037 74.5116 30.265 73.9136 30.265ZM86.1342 29.42V38H84.8472L81.2592 32.254L80.3492 30.642H80.3362L80.3882 31.942V38H79.4002V29.42H80.6872L84.2622 35.14L85.1852 36.791H85.1982L85.1462 35.478V29.42H86.1342ZM90.9231 29.29C91.6771 29.29 92.3271 29.446 92.8731 29.758C93.4191 30.0613 93.8741 30.512 94.2381 31.11L93.3671 31.786C93.0464 31.2313 92.6824 30.8413 92.2751 30.616C91.8764 30.382 91.3911 30.265 90.8191 30.265C90.3598 30.265 89.9784 30.33 89.6751 30.46C89.3804 30.59 89.1638 30.7633 89.0251 30.98C88.8864 31.188 88.8171 31.4263 88.8171 31.695C88.8171 31.9983 88.9124 32.267 89.1031 32.501C89.2938 32.7263 89.6751 32.904 90.2471 33.034L92.1061 33.45C92.9294 33.632 93.5014 33.9093 93.8221 34.282C94.1514 34.646 94.3161 35.101 94.3161 35.647C94.3161 36.1323 94.1774 36.5657 93.9001 36.947C93.6314 37.3197 93.2501 37.61 92.7561 37.818C92.2621 38.026 91.6814 38.13 91.0141 38.13C90.3901 38.13 89.8398 38.0477 89.3631 37.883C88.8951 37.7097 88.4921 37.48 88.1541 37.194C87.8161 36.908 87.5388 36.5873 87.3221 36.232L88.2321 35.491C88.3968 35.8203 88.6091 36.1107 88.8691 36.362C89.1291 36.6133 89.4411 36.8083 89.8051 36.947C90.1778 37.0857 90.6024 37.155 91.0791 37.155C91.5211 37.155 91.9024 37.103 92.2231 36.999C92.5524 36.8863 92.8038 36.726 92.9771 36.518C93.1504 36.3013 93.2371 36.0413 93.2371 35.738C93.2371 35.4607 93.1461 35.2137 92.9641 34.997C92.7821 34.7717 92.4398 34.6027 91.9371 34.49L89.9221 34.035C89.3934 33.9137 88.9644 33.749 88.6351 33.541C88.3144 33.3243 88.0804 33.073 87.9331 32.787C87.7944 32.4923 87.7251 32.176 87.7251 31.838C87.7251 31.3787 87.8508 30.9583 88.1021 30.577C88.3621 30.187 88.7304 29.875 89.2071 29.641C89.6924 29.407 90.2644 29.29 90.9231 29.29ZM95.7152 38V29.42H101.734V30.395H96.7552V33.164H100.629V34.139H96.7552V37.025H101.929V38H95.7152ZM106.475 29.42C107.351 29.42 108.053 29.6453 108.581 30.096C109.11 30.5467 109.374 31.1577 109.374 31.929C109.374 32.7003 109.106 33.3027 108.568 33.736C108.04 34.1607 107.338 34.373 106.462 34.373L106.371 34.438H104.265V38H103.225V29.42H106.475ZM106.462 33.463C107.078 33.463 107.533 33.3373 107.827 33.086C108.131 32.826 108.282 32.4403 108.282 31.929C108.282 31.4177 108.131 31.0363 107.827 30.785C107.533 30.525 107.078 30.395 106.462 30.395H104.265V33.463H106.462ZM107.06 33.671L109.894 38H108.659L106.189 34.243L107.06 33.671ZM115.732 29.42V35.062C115.732 36.024 115.472 36.778 114.952 37.324C114.44 37.8613 113.73 38.13 112.82 38.13C112.178 38.13 111.65 38.0087 111.234 37.766C110.818 37.5233 110.527 37.181 110.363 36.739C110.207 36.2883 110.185 35.764 110.298 35.166L111.26 34.971C111.164 35.7077 111.229 36.258 111.455 36.622C111.689 36.9773 112.131 37.155 112.781 37.155C113.517 37.155 114.02 36.9557 114.289 36.557C114.557 36.1497 114.692 35.5647 114.692 34.802V29.42H115.732ZM117.674 38V29.42H123.693V30.395H118.714V33.164H122.588V34.139H118.714V37.025H123.888V38H117.674ZM128.434 29.42C129.309 29.42 130.011 29.6453 130.54 30.096C131.069 30.5467 131.333 31.1577 131.333 31.929C131.333 32.7003 131.064 33.3027 130.527 33.736C129.998 34.1607 129.296 34.373 128.421 34.373L128.33 34.438H126.224V38H125.184V29.42H128.434ZM128.421 33.463C129.036 33.463 129.491 33.3373 129.786 33.086C130.089 32.826 130.241 32.4403 130.241 31.929C130.241 31.4177 130.089 31.0363 129.786 30.785C129.491 30.525 129.036 30.395 128.421 30.395H126.224V33.463H128.421ZM129.019 33.671L131.853 38H130.618L128.148 34.243L129.019 33.671ZM134.09 29.42V38H133.05V29.42H134.09ZM133.999 26.274H135.091L133.973 28.341H133.141L133.999 26.274ZM142.954 38H141.849L140.939 35.621H137.052L136.142 38H135.05L138.391 29.42H139.626L142.954 38ZM137.429 34.646H140.562L138.989 30.421L137.429 34.646ZM149.817 29.42C151.161 29.42 152.214 29.7927 152.976 30.538C153.748 31.2747 154.133 32.332 154.133 33.71C154.133 35.088 153.748 36.1497 152.976 36.895C152.214 37.6317 151.161 38 149.817 38H147.048V29.42H149.817ZM149.921 37.025C150.901 37.025 151.663 36.7347 152.209 36.154C152.764 35.5647 153.041 34.75 153.041 33.71C153.041 32.67 152.764 31.8597 152.209 31.279C151.663 30.6897 150.901 30.395 149.921 30.395H148.088V37.025H149.921ZM155.638 38V29.42H161.657V30.395H156.678V33.164H160.552V34.139H156.678V37.025H161.852V38H155.638ZM173.714 35.803C173.532 36.2883 173.272 36.7087 172.934 37.064C172.596 37.4107 172.198 37.675 171.738 37.857C171.288 38.039 170.794 38.13 170.256 38.13C169.442 38.13 168.735 37.9523 168.137 37.597C167.548 37.233 167.089 36.7217 166.759 36.063C166.439 35.4043 166.278 34.62 166.278 33.71C166.278 32.8 166.439 32.0157 166.759 31.357C167.089 30.6983 167.548 30.1913 168.137 29.836C168.735 29.472 169.433 29.29 170.23 29.29C170.785 29.29 171.279 29.368 171.712 29.524C172.146 29.6713 172.514 29.8967 172.817 30.2C173.129 30.4947 173.376 30.8587 173.558 31.292L172.531 31.773C172.341 31.279 172.063 30.9063 171.699 30.655C171.344 30.395 170.88 30.265 170.308 30.265C169.728 30.265 169.216 30.4037 168.774 30.681C168.332 30.9497 167.986 31.3397 167.734 31.851C167.492 32.3623 167.37 32.982 167.37 33.71C167.37 34.4293 167.487 35.049 167.721 35.569C167.955 36.0803 168.289 36.4747 168.722 36.752C169.156 37.0207 169.667 37.155 170.256 37.155C170.828 37.155 171.327 37.012 171.751 36.726C172.176 36.4313 172.484 35.9937 172.674 35.413L173.714 35.803ZM175.97 29.42V38H174.93V29.42H175.97ZM177.997 38V29.42H184.016V30.395H179.037V33.164H182.911V34.139H179.037V37.025H184.211V38H177.997ZM192.241 29.42V38H190.954L187.366 32.254L186.456 30.642H186.443L186.495 31.942V38H185.507V29.42H186.794L190.369 35.14L191.292 36.791H191.305L191.253 35.478V29.42H192.241ZM201.19 35.803C201.008 36.2883 200.748 36.7087 200.41 37.064C200.072 37.4107 199.673 37.675 199.214 37.857C198.763 38.039 198.269 38.13 197.732 38.13C196.917 38.13 196.211 37.9523 195.613 37.597C195.024 37.233 194.564 36.7217 194.235 36.063C193.914 35.4043 193.754 34.62 193.754 33.71C193.754 32.8 193.914 32.0157 194.235 31.357C194.564 30.6983 195.024 30.1913 195.613 29.836C196.211 29.472 196.909 29.29 197.706 29.29C198.261 29.29 198.755 29.368 199.188 29.524C199.621 29.6713 199.99 29.8967 200.293 30.2C200.605 30.4947 200.852 30.8587 201.034 31.292L200.007 31.773C199.816 31.279 199.539 30.9063 199.175 30.655C198.82 30.395 198.356 30.265 197.784 30.265C197.203 30.265 196.692 30.4037 196.25 30.681C195.808 30.9497 195.461 31.3397 195.21 31.851C194.967 32.3623 194.846 32.982 194.846 33.71C194.846 34.4293 194.963 35.049 195.197 35.569C195.431 36.0803 195.765 36.4747 196.198 36.752C196.631 37.0207 197.143 37.155 197.732 37.155C198.304 37.155 198.802 37.012 199.227 36.726C199.652 36.4313 199.959 35.9937 200.15 35.413L201.19 35.803ZM203.446 29.42V38H202.406V29.42H203.446ZM212.311 38H211.206L210.296 35.621H206.409L205.499 38H204.407L207.748 29.42H208.983L212.311 38ZM206.786 34.646H209.919L208.346 30.421L206.786 34.646ZM213.727 36.44C213.935 36.44 214.108 36.4963 214.247 36.609C214.394 36.713 214.507 36.8603 214.585 37.051C214.663 37.233 214.702 37.4497 214.702 37.701C214.702 37.987 214.65 38.2687 214.546 38.546C214.45 38.8233 214.299 39.079 214.091 39.313C213.883 39.547 213.614 39.742 213.285 39.898L212.739 39.391C212.973 39.313 213.176 39.2047 213.35 39.066C213.532 38.9273 213.679 38.7713 213.792 38.598C213.904 38.4247 213.978 38.247 214.013 38.065L213.961 38.039C213.926 38.065 213.883 38.0867 213.831 38.104C213.779 38.1213 213.701 38.13 213.597 38.13C213.493 38.13 213.384 38.0997 213.272 38.039C213.168 37.9783 213.077 37.8917 212.999 37.779C212.921 37.6577 212.882 37.5017 212.882 37.311C212.882 37.155 212.921 37.012 212.999 36.882C213.077 36.7433 213.176 36.635 213.298 36.557C213.428 36.479 213.571 36.44 213.727 36.44ZM40.7669 41.42V46.802C40.7669 47.9027 40.4765 48.7347 39.8959 49.298C39.3152 49.8527 38.4832 50.13 37.3999 50.13C36.3252 50.13 35.4932 49.8527 34.9039 49.298C34.3232 48.7347 34.0329 47.9027 34.0329 46.802V41.42H35.0729V46.542C35.0729 47.4347 35.2592 48.0933 35.6319 48.518C36.0132 48.9427 36.6025 49.155 37.3999 49.155C38.1972 49.155 38.7822 48.9427 39.1549 48.518C39.5362 48.0933 39.7269 47.4347 39.7269 46.542V41.42H40.7669ZM49.36 41.42V50H48.073L44.485 44.254L43.575 42.642H43.562L43.614 43.942V50H42.626V41.42H43.913L47.488 47.14L48.411 48.791H48.424L48.372 47.478V41.42H49.36ZM52.4328 41.42V50H51.3928V41.42H52.4328ZM61.1155 41.42L57.8655 50H56.6825L53.4195 41.42H54.5375L56.7215 47.348L57.2675 49.051L57.8135 47.361L59.9975 41.42H61.1155ZM62.1092 50V41.42H68.1282V42.395H63.1492V45.164H67.0232V46.139H63.1492V49.025H68.3232V50H62.1092ZM72.8692 41.42C73.7446 41.42 74.4466 41.6453 74.9752 42.096C75.5039 42.5467 75.7682 43.1577 75.7682 43.929C75.7682 44.7003 75.4996 45.3027 74.9622 45.736C74.4336 46.1607 73.7316 46.373 72.8562 46.373L72.7652 46.438H70.6592V50H69.6192V41.42H72.8692ZM72.8562 45.463C73.4716 45.463 73.9266 45.3373 74.2212 45.086C74.5246 44.826 74.6762 44.4403 74.6762 43.929C74.6762 43.4177 74.5246 43.0363 74.2212 42.785C73.9266 42.525 73.4716 42.395 72.8562 42.395H70.6592V45.463H72.8562ZM73.4542 45.671L76.2882 50H75.0532L72.5832 46.243L73.4542 45.671ZM80.2407 41.29C80.9947 41.29 81.6447 41.446 82.1907 41.758C82.7367 42.0613 83.1917 42.512 83.5557 43.11L82.6847 43.786C82.3641 43.2313 82.0001 42.8413 81.5927 42.616C81.1941 42.382 80.7087 42.265 80.1367 42.265C79.6774 42.265 79.2961 42.33 78.9927 42.46C78.6981 42.59 78.4814 42.7633 78.3427 42.98C78.2041 43.188 78.1347 43.4263 78.1347 43.695C78.1347 43.9983 78.2301 44.267 78.4207 44.501C78.6114 44.7263 78.9927 44.904 79.5647 45.034L81.4237 45.45C82.2471 45.632 82.8191 45.9093 83.1397 46.282C83.4691 46.646 83.6337 47.101 83.6337 47.647C83.6337 48.1323 83.4951 48.5657 83.2177 48.947C82.9491 49.3197 82.5677 49.61 82.0737 49.818C81.5797 50.026 80.9991 50.13 80.3317 50.13C79.7077 50.13 79.1574 50.0477 78.6807 49.883C78.2127 49.7097 77.8097 49.48 77.4717 49.194C77.1337 48.908 76.8564 48.5873 76.6397 48.232L77.5497 47.491C77.7144 47.8203 77.9267 48.1107 78.1867 48.362C78.4467 48.6133 78.7587 48.8083 79.1227 48.947C79.4954 49.0857 79.9201 49.155 80.3967 49.155C80.8387 49.155 81.2201 49.103 81.5407 48.999C81.8701 48.8863 82.1214 48.726 82.2947 48.518C82.4681 48.3013 82.5547 48.0413 82.5547 47.738C82.5547 47.4607 82.4637 47.2137 82.2817 46.997C82.0997 46.7717 81.7574 46.6027 81.2547 46.49L79.2397 46.035C78.7111 45.9137 78.2821 45.749 77.9527 45.541C77.6321 45.3243 77.3981 45.073 77.2507 44.787C77.1121 44.4923 77.0427 44.176 77.0427 43.838C77.0427 43.3787 77.1684 42.9583 77.4197 42.577C77.6797 42.187 78.0481 41.875 78.5247 41.641C79.0101 41.407 79.5821 41.29 80.2407 41.29ZM86.0729 41.42V50H85.0329V41.42H86.0729ZM90.8685 41.42C92.2119 41.42 93.2649 41.7927 94.0275 42.538C94.7989 43.2747 95.1845 44.332 95.1845 45.71C95.1845 47.088 94.7989 48.1497 94.0275 48.895C93.2649 49.6317 92.2119 50 90.8685 50H88.0995V41.42H90.8685ZM90.9725 49.025C91.9519 49.025 92.7145 48.7347 93.2605 48.154C93.8152 47.5647 94.0925 46.75 94.0925 45.71C94.0925 44.67 93.8152 43.8597 93.2605 43.279C92.7145 42.6897 91.9519 42.395 90.9725 42.395H89.1395V49.025H90.9725ZM103.235 50H102.13L101.22 47.621H97.3327L96.4227 50H95.3307L98.6717 41.42H99.9067L103.235 50ZM97.7097 46.646H100.843L99.2697 42.421L97.7097 46.646ZM106.968 41.42C108.311 41.42 109.364 41.7927 110.127 42.538C110.898 43.2747 111.284 44.332 111.284 45.71C111.284 47.088 110.898 48.1497 110.127 48.895C109.364 49.6317 108.311 50 106.968 50H104.199V41.42H106.968ZM107.072 49.025C108.051 49.025 108.814 48.7347 109.36 48.154C109.914 47.5647 110.192 46.75 110.192 45.71C110.192 44.67 109.914 43.8597 109.36 43.279C108.814 42.6897 108.051 42.395 107.072 42.395H105.239V49.025H107.072ZM112.788 50V41.42H118.807V42.395H113.828V45.164H117.702V46.139H113.828V49.025H119.002V50H112.788ZM123.054 41.29C123.808 41.29 124.458 41.446 125.004 41.758C125.55 42.0613 126.005 42.512 126.369 43.11L125.498 43.786C125.177 43.2313 124.813 42.8413 124.406 42.616C124.007 42.382 123.522 42.265 122.95 42.265C122.491 42.265 122.109 42.33 121.806 42.46C121.511 42.59 121.295 42.7633 121.156 42.98C121.017 43.188 120.948 43.4263 120.948 43.695C120.948 43.9983 121.043 44.267 121.234 44.501C121.425 44.7263 121.806 44.904 122.378 45.034L124.237 45.45C125.06 45.632 125.632 45.9093 125.953 46.282C126.282 46.646 126.447 47.101 126.447 47.647C126.447 48.1323 126.308 48.5657 126.031 48.947C125.762 49.3197 125.381 49.61 124.887 49.818C124.393 50.026 123.812 50.13 123.145 50.13C122.521 50.13 121.971 50.0477 121.494 49.883C121.026 49.7097 120.623 49.48 120.285 49.194C119.947 48.908 119.67 48.5873 119.453 48.232L120.363 47.491C120.528 47.8203 120.74 48.1107 121 48.362C121.26 48.6133 121.572 48.8083 121.936 48.947C122.309 49.0857 122.733 49.155 123.21 49.155C123.652 49.155 124.033 49.103 124.354 48.999C124.683 48.8863 124.935 48.726 125.108 48.518C125.281 48.3013 125.368 48.0413 125.368 47.738C125.368 47.4607 125.277 47.2137 125.095 46.997C124.913 46.7717 124.571 46.6027 124.068 46.49L122.053 46.035C121.524 45.9137 121.095 45.749 120.766 45.541C120.445 45.3243 120.211 45.073 120.064 44.787C119.925 44.4923 119.856 44.176 119.856 43.838C119.856 43.3787 119.982 42.9583 120.233 42.577C120.493 42.187 120.861 41.875 121.338 41.641C121.823 41.407 122.395 41.29 123.054 41.29ZM131.497 50V41.42H137.516V42.395H132.537V45.164H136.411V46.139H132.537V49.025H137.711V50H131.497ZM143.697 41.42V50H142.657V41.42H143.697ZM152.458 41.42V50H151.171L147.583 44.254L146.673 42.642H146.66L146.712 43.942V50H145.724V41.42H147.011L150.586 47.14L151.509 48.791H151.522L151.47 47.478V41.42H152.458ZM161.225 41.42V50H159.938L156.35 44.254L155.44 42.642H155.427L155.479 43.942V50H154.491V41.42H155.778L159.353 47.14L160.276 48.791H160.289L160.237 47.478V41.42H161.225ZM166.716 41.29C167.531 41.29 168.233 41.472 168.822 41.836C169.42 42.1913 169.879 42.6983 170.2 43.357C170.529 44.0157 170.694 44.8 170.694 45.71C170.694 46.62 170.529 47.4043 170.2 48.063C169.879 48.7217 169.42 49.233 168.822 49.597C168.233 49.9523 167.531 50.13 166.716 50.13C165.901 50.13 165.195 49.9523 164.597 49.597C164.008 49.233 163.548 48.7217 163.219 48.063C162.898 47.4043 162.738 46.62 162.738 45.71C162.738 44.8 162.898 44.0157 163.219 43.357C163.548 42.6983 164.008 42.1913 164.597 41.836C165.195 41.472 165.901 41.29 166.716 41.29ZM166.716 42.265C166.127 42.265 165.615 42.4037 165.182 42.681C164.749 42.9497 164.415 43.344 164.181 43.864C163.947 44.3753 163.83 44.9907 163.83 45.71C163.83 46.4293 163.947 47.049 164.181 47.569C164.415 48.0803 164.749 48.4747 165.182 48.752C165.615 49.0207 166.127 49.155 166.716 49.155C167.314 49.155 167.825 49.0207 168.25 48.752C168.683 48.4747 169.017 48.0803 169.251 47.569C169.485 47.049 169.602 46.4293 169.602 45.71C169.602 44.9907 169.485 44.3753 169.251 43.864C169.017 43.344 168.683 42.9497 168.25 42.681C167.825 42.4037 167.314 42.265 166.716 42.265ZM178.655 41.42L175.405 50H174.222L170.959 41.42H172.077L174.261 47.348L174.807 49.051L175.353 47.361L177.537 41.42H178.655ZM185.713 50H184.608L183.698 47.621H179.811L178.901 50H177.809L181.15 41.42H182.385L185.713 50ZM180.188 46.646H183.321L181.748 42.421L180.188 46.646ZM193.301 47.803C193.119 48.2883 192.859 48.7087 192.521 49.064C192.183 49.4107 191.784 49.675 191.325 49.857C190.874 50.039 190.38 50.13 189.843 50.13C189.028 50.13 188.322 49.9523 187.724 49.597C187.134 49.233 186.675 48.7217 186.346 48.063C186.025 47.4043 185.865 46.62 185.865 45.71C185.865 44.8 186.025 44.0157 186.346 43.357C186.675 42.6983 187.134 42.1913 187.724 41.836C188.322 41.472 189.019 41.29 189.817 41.29C190.371 41.29 190.865 41.368 191.299 41.524C191.732 41.6713 192.1 41.8967 192.404 42.2C192.716 42.4947 192.963 42.8587 193.145 43.292L192.118 43.773C191.927 43.279 191.65 42.9063 191.286 42.655C190.93 42.395 190.467 42.265 189.895 42.265C189.314 42.265 188.803 42.4037 188.361 42.681C187.919 42.9497 187.572 43.3397 187.321 43.851C187.078 44.3623 186.957 44.982 186.957 45.71C186.957 46.4293 187.074 47.049 187.308 47.569C187.542 48.0803 187.875 48.4747 188.309 48.752C188.742 49.0207 189.253 49.155 189.843 49.155C190.415 49.155 190.913 49.012 191.338 48.726C191.762 48.4313 192.07 47.9937 192.261 47.413L193.301 47.803ZM195.557 41.42V50H194.517V41.42H195.557ZM201.041 41.29C201.856 41.29 202.558 41.472 203.147 41.836C203.745 42.1913 204.205 42.6983 204.525 43.357C204.855 44.0157 205.019 44.8 205.019 45.71C205.019 46.62 204.855 47.4043 204.525 48.063C204.205 48.7217 203.745 49.233 203.147 49.597C202.558 49.9523 201.856 50.13 201.041 50.13C200.227 50.13 199.52 49.9523 198.922 49.597C198.333 49.233 197.874 48.7217 197.544 48.063C197.224 47.4043 197.063 46.62 197.063 45.71C197.063 44.8 197.224 44.0157 197.544 43.357C197.874 42.6983 198.333 42.1913 198.922 41.836C199.52 41.472 200.227 41.29 201.041 41.29ZM201.041 42.265C200.452 42.265 199.941 42.4037 199.507 42.681C199.074 42.9497 198.74 43.344 198.506 43.864C198.272 44.3753 198.155 44.9907 198.155 45.71C198.155 46.4293 198.272 47.049 198.506 47.569C198.74 48.0803 199.074 48.4747 199.507 48.752C199.941 49.0207 200.452 49.155 201.041 49.155C201.639 49.155 202.151 49.0207 202.575 48.752C203.009 48.4747 203.342 48.0803 203.576 47.569C203.81 47.049 203.927 46.4293 203.927 45.71C203.927 44.9907 203.81 44.3753 203.576 43.864C203.342 43.344 203.009 42.9497 202.575 42.681C202.151 42.4037 201.639 42.265 201.041 42.265ZM201.34 38.274H202.432L201.314 40.341H200.482L201.34 38.274ZM213.262 41.42V50H211.975L208.387 44.254L207.477 42.642H207.464L207.516 43.942V50H206.528V41.42H207.815L211.39 47.14L212.313 48.791H212.326L212.274 47.478V41.42H213.262Z" fill="#0F0F0F"/>
<path d="M280 0H228.671V52H280V0Z" fill="#0F0F0F"/>
<path d="M238.316 17.5156L237.274 20.7956L233.881 20.8392L236.637 22.8369L235.647 26.0384L238.316 24.0669L241.02 25.9947L239.986 22.7933L242.699 20.7607L239.366 20.7956L238.316 17.5156Z" fill="#F7F7F7"/>
<path d="M238.316 17.5156L237.274 20.7956L233.881 20.8392L236.637 22.8369L235.647 26.0384L238.316 24.0669L241.02 25.9947L239.986 22.7933L242.699 20.7607L239.366 20.7956L238.316 17.5156Z" fill="#F7F7F7"/>
<path d="M249.003 17.5156L247.97 20.7956L244.568 20.8392L247.324 22.8369L246.334 26.0384L249.003 24.0669L251.715 25.9947L250.673 22.7933L253.386 20.7607L250.053 20.7956L249.003 17.5156Z" fill="#F7F7F7"/>
<path d="M249.003 17.5156L247.97 20.7956L244.568 20.8392L247.324 22.8369L246.334 26.0384L249.003 24.0669L251.715 25.9947L250.673 22.7933L253.386 20.7607L250.053 20.7956L249.003 17.5156Z" fill="#F7F7F7"/>
<path d="M259.731 17.5156L258.698 20.7956L255.305 20.8392L258.061 22.8369L257.062 26.0384L259.731 24.0669L262.444 25.9947L261.41 22.7933L264.123 20.7607L260.79 20.7956L259.731 17.5156Z" fill="#F7F7F7"/>
<path d="M259.731 17.5156L258.698 20.7956L255.305 20.8392L258.061 22.8369L257.062 26.0384L259.731 24.0669L262.444 25.9947L261.41 22.7933L264.123 20.7607L260.79 20.7956L259.731 17.5156Z" fill="#F7F7F7"/>
<path d="M254.333 24.9961L253.3 28.2761L249.907 28.311L252.663 30.3086L251.664 33.5101L254.333 31.5473L257.046 33.4752L256.012 30.265L258.725 28.2325L255.392 28.2761L254.333 24.9961Z" fill="#F7F7F7"/>
<path d="M254.333 24.9961L253.3 28.2761L249.907 28.311L252.663 30.3086L251.664 33.5101L254.333 31.5473L257.046 33.4752L256.012 30.265L258.725 28.2325L255.392 28.2761L254.333 24.9961Z" fill="#F7F7F7"/>
<path d="M243.628 24.9961L242.595 28.2761L239.194 28.311L241.949 30.3086L240.959 33.5101L243.628 31.5473L246.341 33.4752L245.308 30.265L248.011 28.2325L244.679 28.2761L243.628 24.9961Z" fill="#F7F7F7"/>
<path d="M243.628 24.9961L242.595 28.2761L239.194 28.311L241.949 30.3086L240.959 33.5101L243.628 31.5473L246.341 33.4752L245.308 30.265L248.011 28.2325L244.679 28.2761L243.628 24.9961Z" fill="#F7F7F7"/>
<path d="M265.087 24.9961L264.053 28.2761L260.661 28.311L263.407 30.3086L262.417 33.5101L265.087 31.5473L267.799 33.4752L266.766 30.265L269.469 28.2325L266.137 28.2761L265.087 24.9961Z" fill="#F7F7F7"/>
<path d="M265.087 24.9961L264.053 28.2761L260.661 28.311L263.407 30.3086L262.417 33.5101L265.087 31.5473L267.799 33.4752L266.766 30.265L269.469 28.2325L266.137 28.2761L265.087 24.9961Z" fill="#F7F7F7"/>
<path d="M270.45 17.5156L269.417 20.7956L266.024 20.8392L268.78 22.8369L267.781 26.0384L270.45 24.0669L273.163 25.9947L272.129 22.7933L274.842 20.7607L271.509 20.7956L270.45 17.5156Z" fill="#F7F7F7"/>
<path d="M270.45 17.5156L269.417 20.7956L266.024 20.8392L268.78 22.8369L267.781 26.0384L270.45 24.0669L273.163 25.9947L272.129 22.7933L274.842 20.7607L271.509 20.7956L270.45 17.5156Z" fill="#F7F7F7"/>
<path d="M26.0394 72.275C25.7227 73.425 25.2144 74.375 24.5144 75.125C23.8144 75.8583 22.981 76.4 22.0144 76.75C21.0477 77.0833 19.981 77.25 18.8144 77.25C17.1477 77.25 15.706 76.9167 14.4894 76.25C13.2727 75.5667 12.3394 74.5917 11.6894 73.325C11.0394 72.0583 10.7144 70.5333 10.7144 68.75C10.7144 66.9667 11.0394 65.4417 11.6894 64.175C12.3394 62.9083 13.2727 61.9417 14.4894 61.275C15.706 60.5917 17.1394 60.25 18.7894 60.25C19.9394 60.25 20.9977 60.4167 21.9644 60.75C22.931 61.0667 23.7477 61.5583 24.4144 62.225C25.081 62.8917 25.556 63.75 25.8394 64.8L22.0644 66.325C21.831 65.2917 21.4477 64.5833 20.9144 64.2C20.3977 63.8167 19.7394 63.625 18.9394 63.625C18.156 63.625 17.4727 63.8167 16.8894 64.2C16.3227 64.5833 15.881 65.1583 15.5644 65.925C15.2644 66.675 15.1144 67.6167 15.1144 68.75C15.1144 69.8667 15.256 70.8083 15.5394 71.575C15.8227 72.3417 16.2477 72.9167 16.8144 73.3C17.3977 73.6833 18.1144 73.875 18.9644 73.875C19.7644 73.875 20.4394 73.6583 20.9894 73.225C21.556 72.775 21.9394 72.0917 22.1394 71.175L26.0394 72.275ZM34.081 64.25C35.3976 64.25 36.5476 64.5083 37.531 65.025C38.531 65.525 39.306 66.2667 39.856 67.25C40.4226 68.2167 40.706 69.3833 40.706 70.75C40.706 72.1167 40.4226 73.2917 39.856 74.275C39.306 75.2417 38.531 75.9833 37.531 76.5C36.5476 77 35.3976 77.25 34.081 77.25C32.7976 77.25 31.656 77 30.656 76.5C29.656 75.9833 28.8726 75.2417 28.306 74.275C27.756 73.2917 27.481 72.1167 27.481 70.75C27.481 69.3833 27.756 68.2167 28.306 67.25C28.8726 66.2667 29.656 65.525 30.656 65.025C31.656 64.5083 32.7976 64.25 34.081 64.25ZM34.081 67.275C33.5976 67.275 33.181 67.3917 32.831 67.625C32.481 67.8583 32.2143 68.2333 32.031 68.75C31.8476 69.2667 31.756 69.9333 31.756 70.75C31.756 71.5667 31.8476 72.2333 32.031 72.75C32.2143 73.25 32.481 73.625 32.831 73.875C33.181 74.1083 33.5976 74.225 34.081 74.225C34.581 74.225 35.006 74.1083 35.356 73.875C35.706 73.625 35.9726 73.25 36.156 72.75C36.3393 72.2333 36.431 71.5667 36.431 70.75C36.431 69.9333 36.3393 69.2667 36.156 68.75C35.9726 68.2333 35.706 67.8583 35.356 67.625C35.006 67.3917 34.581 67.275 34.081 67.275ZM43.0968 77V64.5H46.8968L47.0218 66.925C47.4218 66.0417 47.9801 65.375 48.6968 64.925C49.4301 64.475 50.2718 64.25 51.2218 64.25C52.1551 64.25 52.9634 64.4583 53.6468 64.875C54.3301 65.2917 54.8384 65.9083 55.1718 66.725C55.4384 66.175 55.7801 65.7167 56.1968 65.35C56.6301 64.9833 57.1218 64.7083 57.6718 64.525C58.2218 64.3417 58.7884 64.25 59.3718 64.25C60.2051 64.25 60.9384 64.4167 61.5718 64.75C62.2051 65.0667 62.7051 65.5583 63.0718 66.225C63.4551 66.875 63.6468 67.6917 63.6468 68.675V77H59.3968V69.65C59.3968 68.85 59.2384 68.2917 58.9218 67.975C58.6218 67.6583 58.2134 67.5 57.6968 67.5C57.2801 67.5 56.8968 67.6083 56.5468 67.825C56.2134 68.025 55.9551 68.3333 55.7718 68.75C55.5884 69.1667 55.4968 69.6917 55.4968 70.325V77H51.2468V69.65C51.2468 68.85 51.0884 68.2917 50.7718 67.975C50.4551 67.6583 50.0468 67.5 49.5468 67.5C49.1634 67.5 48.7968 67.6 48.4468 67.8C48.1134 68 47.8468 68.3167 47.6468 68.75C47.4468 69.1667 47.3468 69.7167 47.3468 70.4V77H43.0968ZM70.8569 77.25C70.0069 77.25 69.2569 77.1083 68.6069 76.825C67.9736 76.525 67.4736 76.05 67.1069 75.4C66.7403 74.75 66.5569 73.9 66.5569 72.85V64.5H70.8069V71.85C70.8069 72.65 70.9653 73.2083 71.2819 73.525C71.5986 73.8417 72.0486 74 72.6319 74C72.9319 74 73.2153 73.95 73.4819 73.85C73.7486 73.7333 73.9819 73.5667 74.1819 73.35C74.3819 73.1167 74.5319 72.825 74.6319 72.475C74.7486 72.1083 74.8069 71.6833 74.8069 71.2V64.5H79.0569V77H75.2569L75.1319 74.65C74.7319 75.5333 74.1736 76.1917 73.4569 76.625C72.7403 77.0417 71.8736 77.25 70.8569 77.25ZM82.1104 77V64.5H85.9104L86.1354 68.8L85.6604 68.325C85.8271 67.425 86.1188 66.675 86.5354 66.075C86.9688 65.475 87.5021 65.025 88.1354 64.725C88.7854 64.4083 89.5104 64.25 90.3104 64.25C91.1771 64.25 91.9271 64.4167 92.5605 64.75C93.2104 65.0833 93.7188 65.575 94.0854 66.225C94.4521 66.875 94.6355 67.6917 94.6355 68.675V77H90.3854V69.8C90.3854 68.9333 90.2188 68.3333 89.8854 68C89.5521 67.6667 89.1271 67.5 88.6104 67.5C88.2104 67.5 87.8354 67.6 87.4854 67.8C87.1354 67.9833 86.8604 68.2833 86.6604 68.7C86.4604 69.1167 86.3604 69.675 86.3604 70.375V77H82.1104ZM99.7384 63.05C98.8717 63.05 98.2384 62.8917 97.8384 62.575C97.455 62.2417 97.2634 61.725 97.2634 61.025C97.2634 60.3083 97.455 59.7917 97.8384 59.475C98.2384 59.1417 98.8717 58.975 99.7384 58.975C100.588 58.975 101.213 59.1417 101.613 59.475C102.013 59.7917 102.213 60.3083 102.213 61.025C102.213 61.725 102.013 62.2417 101.613 62.575C101.213 62.8917 100.588 63.05 99.7384 63.05ZM101.863 64.5V77H97.6134V64.5H101.863ZM109.489 77.25C108.455 77.25 107.547 77 106.764 76.5C105.997 75.9833 105.397 75.2417 104.964 74.275C104.547 73.3083 104.339 72.15 104.339 70.8C104.339 69.4 104.555 68.2167 104.989 67.25C105.439 66.2833 106.055 65.5417 106.839 65.025C107.639 64.5083 108.555 64.25 109.589 64.25C110.722 64.25 111.63 64.6 112.314 65.3C113.014 65.9833 113.464 66.8583 113.664 67.925L113.264 68.45V59.2H117.514V77H113.714L113.439 72.75L113.939 73.125C113.839 73.9583 113.58 74.6833 113.164 75.3C112.764 75.9167 112.247 76.4 111.614 76.75C110.997 77.0833 110.289 77.25 109.489 77.25ZM110.964 74.125C111.447 74.125 111.855 74 112.189 73.75C112.539 73.4833 112.805 73.0917 112.989 72.575C113.172 72.0583 113.264 71.425 113.264 70.675C113.264 69.975 113.172 69.3833 112.989 68.9C112.822 68.4 112.564 68.025 112.214 67.775C111.88 67.5083 111.472 67.375 110.989 67.375C110.255 67.375 109.672 67.65 109.239 68.2C108.822 68.7333 108.614 69.5833 108.614 70.75C108.614 71.9167 108.822 72.775 109.239 73.325C109.655 73.8583 110.23 74.125 110.964 74.125ZM127.538 69.075C127.538 68.4917 127.371 68.0333 127.038 67.7C126.721 67.35 126.288 67.175 125.738 67.175C125.188 67.175 124.713 67.3167 124.313 67.6C123.929 67.8667 123.663 68.35 123.513 69.05L119.913 68.2C120.146 67 120.763 66.0417 121.763 65.325C122.763 64.6083 124.171 64.25 125.988 64.25C127.204 64.25 128.238 64.4333 129.088 64.8C129.954 65.15 130.613 65.6833 131.063 66.4C131.529 67.1 131.763 67.9667 131.763 69V73.575C131.763 74.225 132.054 74.55 132.638 74.55C132.938 74.55 133.179 74.5167 133.363 74.45L133.113 76.875C132.613 77.1083 132.004 77.225 131.288 77.225C130.638 77.225 130.063 77.125 129.563 76.925C129.063 76.7083 128.671 76.3917 128.388 75.975C128.104 75.5417 127.963 75 127.963 74.35V74.2L128.438 74.025C128.438 74.7417 128.221 75.3417 127.788 75.825C127.371 76.3083 126.821 76.6667 126.138 76.9C125.471 77.1333 124.771 77.25 124.038 77.25C123.188 77.25 122.446 77.1167 121.813 76.85C121.179 76.5833 120.688 76.2 120.338 75.7C120.004 75.1833 119.838 74.55 119.838 73.8C119.838 72.9 120.104 72.1583 120.638 71.575C121.188 70.975 122.046 70.5583 123.213 70.325L127.938 69.35L127.913 71.6L125.513 72.1C125.013 72.2 124.638 72.35 124.388 72.55C124.154 72.7333 124.038 73.0167 124.038 73.4C124.038 73.7667 124.171 74.0417 124.438 74.225C124.704 74.4083 125.021 74.5 125.388 74.5C125.671 74.5 125.938 74.4583 126.188 74.375C126.454 74.2917 126.688 74.1667 126.888 74C127.088 73.8167 127.246 73.5917 127.363 73.325C127.479 73.0583 127.538 72.7417 127.538 72.375V69.075ZM139.542 77.25C138.509 77.25 137.601 77 136.817 76.5C136.051 75.9833 135.451 75.2417 135.017 74.275C134.601 73.3083 134.392 72.15 134.392 70.8C134.392 69.4 134.609 68.2167 135.042 67.25C135.492 66.2833 136.109 65.5417 136.892 65.025C137.692 64.5083 138.609 64.25 139.642 64.25C140.776 64.25 141.684 64.6 142.367 65.3C143.067 65.9833 143.517 66.8583 143.717 67.925L143.317 68.45V59.2H147.567V77H143.767L143.492 72.75L143.992 73.125C143.892 73.9583 143.634 74.6833 143.217 75.3C142.817 75.9167 142.301 76.4 141.667 76.75C141.051 77.0833 140.342 77.25 139.542 77.25ZM141.017 74.125C141.501 74.125 141.909 74 142.242 73.75C142.592 73.4833 142.859 73.0917 143.042 72.575C143.226 72.0583 143.317 71.425 143.317 70.675C143.317 69.975 143.226 69.3833 143.042 68.9C142.876 68.4 142.617 68.025 142.267 67.775C141.934 67.5083 141.526 67.375 141.042 67.375C140.309 67.375 139.726 67.65 139.292 68.2C138.876 68.7333 138.667 69.5833 138.667 70.75C138.667 71.9167 138.876 72.775 139.292 73.325C139.709 73.8583 140.284 74.125 141.017 74.125ZM162.37 77.25C161.336 77.25 160.428 77 159.645 76.5C158.878 75.9833 158.278 75.2417 157.845 74.275C157.428 73.3083 157.22 72.15 157.22 70.8C157.22 69.4 157.436 68.2167 157.87 67.25C158.32 66.2833 158.936 65.5417 159.72 65.025C160.52 64.5083 161.436 64.25 162.47 64.25C163.603 64.25 164.511 64.6 165.195 65.3C165.895 65.9833 166.345 66.8583 166.545 67.925L166.145 68.45V59.2H170.395V77H166.595L166.32 72.75L166.82 73.125C166.72 73.9583 166.461 74.6833 166.045 75.3C165.645 75.9167 165.128 76.4 164.495 76.75C163.878 77.0833 163.17 77.25 162.37 77.25ZM163.845 74.125C164.328 74.125 164.736 74 165.07 73.75C165.42 73.4833 165.686 73.0917 165.87 72.575C166.053 72.0583 166.145 71.425 166.145 70.675C166.145 69.975 166.053 69.3833 165.87 68.9C165.703 68.4 165.445 68.025 165.095 67.775C164.761 67.5083 164.353 67.375 163.87 67.375C163.136 67.375 162.553 67.65 162.12 68.2C161.703 68.7333 161.495 69.5833 161.495 70.75C161.495 71.9167 161.703 72.775 162.12 73.325C162.536 73.8583 163.111 74.125 163.845 74.125ZM179.543 77.25C178.16 77.25 176.96 76.9917 175.943 76.475C174.943 75.9583 174.168 75.2167 173.618 74.25C173.068 73.2833 172.793 72.1167 172.793 70.75C172.793 69.3833 173.068 68.2167 173.618 67.25C174.168 66.2833 174.935 65.5417 175.918 65.025C176.918 64.5083 178.06 64.25 179.343 64.25C180.66 64.25 181.777 64.5083 182.693 65.025C183.627 65.525 184.335 66.225 184.818 67.125C185.302 68.0083 185.543 69.025 185.543 70.175C185.543 70.475 185.535 70.775 185.518 71.075C185.502 71.375 185.477 71.625 185.443 71.825H175.543V69.55H183.568L181.543 70.325C181.543 69.325 181.36 68.5583 180.993 68.025C180.643 67.4917 180.093 67.225 179.343 67.225C178.81 67.225 178.352 67.35 177.968 67.6C177.602 67.85 177.318 68.2417 177.118 68.775C176.935 69.3083 176.843 69.9917 176.843 70.825C176.843 71.6417 176.952 72.3083 177.168 72.825C177.385 73.325 177.693 73.6917 178.093 73.925C178.493 74.1417 178.977 74.25 179.543 74.25C180.177 74.25 180.677 74.125 181.043 73.875C181.427 73.625 181.71 73.275 181.893 72.825L185.293 73.95C185.06 74.6667 184.652 75.275 184.068 75.775C183.502 76.2583 182.818 76.625 182.018 76.875C181.235 77.125 180.41 77.25 179.543 77.25ZM214.474 60.5V77H210.674V69.425L210.799 64.35H210.749L206.674 77H203.199L199.124 64.35H199.074L199.199 69.425V77H195.374V60.5H201.499L204.099 68.9L205.024 72.4H205.074L206.024 68.925L208.599 60.5H214.474ZM224.754 69.075C224.754 68.4917 224.588 68.0333 224.254 67.7C223.938 67.35 223.504 67.175 222.954 67.175C222.404 67.175 221.929 67.3167 221.529 67.6C221.146 67.8667 220.879 68.35 220.729 69.05L217.129 68.2C217.363 67 217.979 66.0417 218.979 65.325C219.979 64.6083 221.388 64.25 223.204 64.25C224.421 64.25 225.454 64.4333 226.304 64.8C227.171 65.15 227.829 65.6833 228.279 66.4C228.746 67.1 228.979 67.9667 228.979 69V73.575C228.979 74.225 229.271 74.55 229.854 74.55C230.154 74.55 230.396 74.5167 230.579 74.45L230.329 76.875C229.829 77.1083 229.221 77.225 228.504 77.225C227.854 77.225 227.279 77.125 226.779 76.925C226.279 76.7083 225.888 76.3917 225.604 75.975C225.321 75.5417 225.179 75 225.179 74.35V74.2L225.654 74.025C225.654 74.7417 225.438 75.3417 225.004 75.825C224.588 76.3083 224.038 76.6667 223.354 76.9C222.688 77.1333 221.988 77.25 221.254 77.25C220.404 77.25 219.663 77.1167 219.029 76.85C218.396 76.5833 217.904 76.2 217.554 75.7C217.221 75.1833 217.054 74.55 217.054 73.8C217.054 72.9 217.321 72.1583 217.854 71.575C218.404 70.975 219.263 70.5583 220.429 70.325L225.154 69.35L225.129 71.6L222.729 72.1C222.229 72.2 221.854 72.35 221.604 72.55C221.371 72.7333 221.254 73.0167 221.254 73.4C221.254 73.7667 221.388 74.0417 221.654 74.225C221.921 74.4083 222.238 74.5 222.604 74.5C222.888 74.5 223.154 74.4583 223.404 74.375C223.671 74.2917 223.904 74.1667 224.104 74C224.304 73.8167 224.463 73.5917 224.579 73.325C224.696 73.0583 224.754 72.7417 224.754 72.375V69.075ZM236.759 77.25C235.726 77.25 234.818 77 234.034 76.5C233.268 75.9833 232.668 75.2417 232.234 74.275C231.818 73.3083 231.609 72.15 231.609 70.8C231.609 69.4 231.826 68.2167 232.259 67.25C232.709 66.2833 233.326 65.5417 234.109 65.025C234.909 64.5083 235.826 64.25 236.859 64.25C237.993 64.25 238.901 64.6 239.584 65.3C240.284 65.9833 240.734 66.8583 240.934 67.925L240.534 68.45V59.2H244.784V77H240.984L240.709 72.75L241.209 73.125C241.109 73.9583 240.851 74.6833 240.434 75.3C240.034 75.9167 239.518 76.4 238.884 76.75C238.268 77.0833 237.559 77.25 236.759 77.25ZM238.234 74.125C238.718 74.125 239.126 74 239.459 73.75C239.809 73.4833 240.076 73.0917 240.259 72.575C240.443 72.0583 240.534 71.425 240.534 70.675C240.534 69.975 240.443 69.3833 240.259 68.9C240.093 68.4 239.834 68.025 239.484 67.775C239.151 67.5083 238.743 67.375 238.259 67.375C237.526 67.375 236.943 67.65 236.509 68.2C236.093 68.7333 235.884 69.5833 235.884 70.75C235.884 71.9167 236.093 72.775 236.509 73.325C236.926 73.8583 237.501 74.125 238.234 74.125ZM247.833 77V64.5H251.583L251.758 67.2C252.075 66.2667 252.541 65.5417 253.158 65.025C253.791 64.5083 254.591 64.25 255.558 64.25C255.875 64.25 256.141 64.275 256.358 64.325C256.591 64.375 256.775 64.4417 256.908 64.525L256.483 68.025C256.316 67.9583 256.1 67.9083 255.833 67.875C255.583 67.825 255.275 67.8 254.908 67.8C254.408 67.8 253.941 67.9083 253.508 68.125C253.075 68.3417 252.725 68.6667 252.458 69.1C252.208 69.5167 252.083 70.05 252.083 70.7V77H247.833ZM260.7 63.05C259.834 63.05 259.2 62.8917 258.8 62.575C258.417 62.2417 258.225 61.725 258.225 61.025C258.225 60.3083 258.417 59.7917 258.8 59.475C259.2 59.1417 259.834 58.975 260.7 58.975C261.55 58.975 262.175 59.1417 262.575 59.475C262.975 59.7917 263.175 60.3083 263.175 61.025C263.175 61.725 262.975 62.2417 262.575 62.575C262.175 62.8917 261.55 63.05 260.7 63.05ZM262.825 64.5V77H258.575V64.5H262.825ZM270.451 77.25C269.417 77.25 268.509 77 267.726 76.5C266.959 75.9833 266.359 75.2417 265.926 74.275C265.509 73.3083 265.301 72.15 265.301 70.8C265.301 69.4 265.517 68.2167 265.951 67.25C266.401 66.2833 267.017 65.5417 267.801 65.025C268.601 64.5083 269.517 64.25 270.551 64.25C271.684 64.25 272.592 64.6 273.276 65.3C273.976 65.9833 274.426 66.8583 274.626 67.925L274.226 68.45V59.2H278.476V77H274.676L274.401 72.75L274.901 73.125C274.801 73.9583 274.542 74.6833 274.126 75.3C273.726 75.9167 273.209 76.4 272.576 76.75C271.959 77.0833 271.251 77.25 270.451 77.25ZM271.926 74.125C272.409 74.125 272.817 74 273.151 73.75C273.501 73.4833 273.767 73.0917 273.951 72.575C274.134 72.0583 274.226 71.425 274.226 70.675C274.226 69.975 274.134 69.3833 273.951 68.9C273.784 68.4 273.526 68.025 273.176 67.775C272.842 67.5083 272.434 67.375 271.951 67.375C271.217 67.375 270.634 67.65 270.201 68.2C269.784 68.7333 269.576 69.5833 269.576 70.75C269.576 71.9167 269.784 72.775 270.201 73.325C270.617 73.8583 271.192 74.125 271.926 74.125Z" fill="#0F0F0F"/>
</svg>
